<?xml version="1.0" standalone="no"?>
<!DOCTYPE svg PUBLIC "-//W3C//DTD SVG 1.1//EN" "http://www.w3.org/Graphics/SVG/1.1/DTD/svg11.dtd" >
<svg xmlns="http://www.w3.org/2000/svg" xmlns:xlink="http://www.w3.org/1999/xlink" version="1.1">
<metadata></metadata>
<defs>
<font id="trend_sansfive" horiz-adv-x="1763" >
<font-face units-per-em="2048" ascent="1536" descent="-512" />
<missing-glyph horiz-adv-x="860" />
<glyph horiz-adv-x="0" />
<glyph horiz-adv-x="682" />
<glyph unicode=" "  horiz-adv-x="860" />
<glyph unicode="&#x09;" horiz-adv-x="860" />
<glyph unicode="&#xa0;" horiz-adv-x="860" />
<glyph unicode="!" horiz-adv-x="811" d="M252 123q0 64 44.5 108.5t109.5 44.5q64 0 108.5 -45t44.5 -108q0 -65 -44.5 -109.5t-108.5 -44.5q-66 0 -110 44.5t-44 109.5zM276 1501h259l-50 -1081h-159zM369 121q0 -15 12 -27t27 -12t26.5 12t11.5 27t-11.5 27t-26.5 12t-27 -12t-12 -27zM385 522h41v854h-41v-854 z" />
<glyph unicode="&#x22;" horiz-adv-x="1019" d="M254 1546h209l-29 -407h-149zM340 1233h41v217h-41v-217zM559 1546h207l-29 -407h-149zM641 1233h41v217h-41v-217z" />
<glyph unicode="#" horiz-adv-x="1638" d="M205 254v213h217l59 203h-164v213h226l59 200h227l-57 -200h283l59 200h227l-57 -200h141v-213h-204l-60 -203h152v-213h-213l-74 -254h-227l73 254h-284l-74 -254h-227l73 254h-155zM303 332h174l-69 -238h45l69 238l463 -2l-67 -236h43l69 236h193v41h-183l113 381h178 v41h-166l62 206h-45l-62 -206h-465l62 206h-43l-62 -206l-200 2v-41h188l-111 -383l-186 2v-41zM532 371l113 383l463 -2l-111 -381h-465zM649 467h285l59 203h-284z" />
<glyph unicode="$" horiz-adv-x="1155" d="M180 236l72 215q157 -105 311 -105q75 0 113.5 36.5t38.5 90.5q0 69 -38.5 116t-156.5 101q-153 69 -218.5 149.5t-65.5 190.5q0 109 70 198t194 122v213h205v-203q128 -15 227 -72l-66 -211q-136 76 -241 76q-77 0 -115.5 -33.5t-38.5 -83.5q0 -61 40 -104.5t136 -89.5 q174 -83 240.5 -160.5t66.5 -196.5q0 -125 -76.5 -220.5t-207.5 -125.5v-241h-203v235q-152 21 -287 103zM301 281l42 -20q113 -48 212 -50v-219h41v219q69 6 127 35t97.5 88t39.5 139q0 38 -9.5 71.5t-29.5 61.5t-39.5 49t-52.5 43.5t-54 35t-57 32.5q-133 75 -175 109 q-83 69 -83 155q0 88 79 147.5t175 59.5q43 0 88 -8.5t69 -17.5l24 -9l16 37q-86 37 -186 39v186h-41v-188q-106 -11 -185.5 -79.5t-79.5 -166.5q0 -41 16 -78t37.5 -64t63.5 -58t74 -50.5t88 -50.5q107 -61 146 -96q75 -68 75 -160q0 -107 -78 -164t-180 -57 q-114 0 -229 61l-19 11z" />
<glyph unicode="%" horiz-adv-x="1689" d="M180 1161q0 129 91 216t223 87t222.5 -87t90.5 -216t-90.5 -219t-222.5 -90t-223 90t-91 219zM233 1161q0 -111 75.5 -186.5t187.5 -75.5q106 0 182 76t76 186q0 109 -76.5 184.5t-188.5 75.5q-104 0 -180 -76t-76 -184zM266 66l1010 1396l129 -90l-1012 -1403zM270 1161 q0 93 65 158t154 65q97 0 162.5 -64.5t65.5 -158.5q0 -95 -65 -160t-156 -65q-96 0 -161 65t-65 160zM326 1161q0 -77 48 -125.5t120 -48.5t120 48.5t48 125.5q0 75 -48.5 120.5t-119.5 45.5t-119.5 -45.5t-48.5 -120.5zM344 76l33 -25l950 1309l-33 24zM885 291 q0 129 90.5 216t222.5 87t222.5 -87t90.5 -216t-90.5 -219t-222.5 -90t-222.5 90t-90.5 219zM938 291q0 -111 75 -186.5t187 -75.5q106 0 182 76t76 186q0 109 -76 184.5t-188 75.5q-104 0 -180 -76t-76 -184zM975 291q0 93 65 158t154 65q96 0 161.5 -64.5t65.5 -158.5 q0 -95 -65 -160t-156 -65q-96 0 -160.5 64.5t-64.5 160.5zM1030 291q0 -77 48 -125.5t120 -48.5t120 48.5t48 125.5q0 75 -48.5 120.5t-119.5 45.5t-119.5 -45.5t-48.5 -120.5z" />
<glyph unicode="&#x26;" horiz-adv-x="1736" d="M203 379q0 80 22.5 143.5t66.5 110t91.5 78t112.5 61.5q-158 155 -158 315q0 179 118.5 282.5t307.5 103.5q184 0 295.5 -98t111.5 -257q0 -84 -22.5 -150t-65.5 -112t-89.5 -76.5t-110.5 -58.5l307 -285q60 64 115 138t79 116l25 43l178 -127q-11 -18 -30.5 -48.5 t-85.5 -115t-136 -155.5l183 -187l-164 -172l-199 203q-224 -160 -442 -160q-236 0 -373 117.5t-137 290.5zM319 371q0 -80 32.5 -142.5t89 -100t129 -57t157.5 -20.5q222 -3 447 191l167 -162l29 29l-166 159q68 62 129.5 135.5t88.5 116.5l28 43l-37 21q-10 -17 -29.5 -46 t-82 -105t-127.5 -136l-451 436q41 16 66 26.5t62 28t59.5 33t51 37.5t45 46t32.5 53.5t23 65.5t7 77q0 134 -83.5 213.5t-219.5 79.5q-46 0 -89 -8t-87.5 -28.5t-76.5 -53t-52.5 -86.5t-20.5 -123q0 -76 56 -160.5t153 -185.5q-58 -23 -99.5 -44t-88 -54.5t-75.5 -70.5 t-48 -90.5t-19 -117.5zM360 371q0 60 19 110t45.5 82.5t74.5 63.5t85 48t98 42l461 -447q-212 -181 -416 -178q-162 2 -264.5 72t-102.5 207zM471 397q0 -98 69.5 -152.5t192.5 -54.5q132 0 273 91l-363 340q-82 -39 -127 -91.5t-45 -132.5zM481 1094q0 74 26 127t70 80 t90.5 39t98.5 12q118 0 190 -68t72 -184q0 -42 -11 -78.5t-25 -63t-44.5 -53.5t-51 -42t-65 -36.5t-65.5 -30.5t-72 -30l-2 -2q-211 215 -211 330zM592 1087q0 -53 34 -98.5t111 -116.5q96 42 146.5 91t50.5 124t-45.5 127t-124.5 52t-125.5 -51.5t-46.5 -127.5z" />
<glyph unicode="'" horiz-adv-x="716" d="M254 1546h209l-29 -407h-149zM340 1192h41v305h-41v-305z" />
<glyph unicode="(" horiz-adv-x="1089" d="M195 518q0 316 158.5 560t467.5 407l107 -162q-258 -139 -384 -337t-126 -468t126 -467t384 -336l-107 -164q-626 333 -626 967zM283 518q0 -92 16.5 -179.5t45 -158.5t65 -136t76.5 -115t80.5 -93t77 -72.5t65 -50.5t45.5 -31l16 -10l21 37q-10 5 -26.5 16t-65 48.5 t-93 81t-98 114.5t-92.5 148.5t-65.5 183t-26.5 217.5q0 107 24.5 208.5t64 179.5t87 147t95 117t87 83t64.5 51l24 17l-20 33q-10 -6 -26.5 -18t-65 -53t-93 -87t-98 -121t-92.5 -154t-65.5 -185.5t-26.5 -217.5z" />
<glyph unicode=")" horiz-adv-x="1089" d="M162 -285q258 139 384 336t126 467q0 269 -125.5 462.5t-384.5 332.5l106 162q627 -330 627 -957q0 -315 -158.5 -558.5t-468.5 -408.5zM299 -291l20 -37q10 6 27.5 17t68.5 50.5t97 85t102 120t96.5 155t68.5 191t28 227.5q0 87 -16 171t-43 152.5t-62 131.5 t-73.5 112.5t-77.5 92t-74 72.5t-62 51.5t-43 31.5l-16 10l-21 -32q9 -6 25.5 -16.5t62.5 -49t88.5 -82t94 -114t88.5 -146t62.5 -177t25.5 -208.5q0 -112 -26 -217t-67 -183.5t-90.5 -147.5t-99.5 -115.5t-91 -80.5t-67 -50z" />
<glyph unicode="*" horiz-adv-x="1144" d="M231 1036l234 113l-234 108l74 132l213 -148l-20 258h149l-20 -256l211 146l75 -132l-233 -108l233 -113l-75 -129l-211 146l20 -256h-149l20 258l-213 -148zM303 1016l21 -35l227 131v-260h41v256l225 -127l21 35l-228 129l230 133l-21 37l-227 -133v264h-41v-266 l-225 133l-21 -37l223 -131z" />
<glyph unicode="+" horiz-adv-x="1445" d="M199 647v199h424v426h200v-426h424v-199h-424v-426h-200v426h-424zM307 723h395v-408h41v408h398v41h-398v385h-41v-385h-395v-41z" />
<glyph unicode="," horiz-adv-x="817" d="M248 121q0 64 44 108.5t109 44.5q84 0 125 -55t41 -147q0 -202 -229 -367l-59 70q51 39 94 99.5t43 90.5v4q-4 -2 -15 -2q-66 0 -109.5 44.5t-43.5 109.5zM362 119q0 -15 12 -27t27 -12t27 12t12 27t-12 27t-27 12t-27 -12t-12 -27z" />
<glyph unicode="-" horiz-adv-x="1040" d="M266 412v178h508v-178h-508zM358 477h324v41h-324v-41z" />
<glyph unicode="." horiz-adv-x="802" d="M248 123q0 64 44 108.5t109 44.5q64 0 109 -45t45 -108q0 -65 -44.5 -109.5t-109.5 -44.5q-66 0 -109.5 44.5t-43.5 109.5zM362 123q0 -15 12 -27t27 -12t27 12t12 27t-12 27t-27 12t-27 -12t-12 -27z" />
<glyph unicode="/" horiz-adv-x="935" d="M133 -442l490 1943h182l-488 -1943h-184zM240 -309h43l422 1679h-43z" />
<glyph unicode="0" horiz-adv-x="1955" d="M209 721q0 153 59.5 291t162 237t245 157t301.5 58q220 0 396 -95.5t275 -265.5t99 -382q0 -157 -59 -295t-160.5 -236.5t-245 -155.5t-305.5 -57q-163 0 -305.5 56.5t-244 155t-160 237t-58.5 295.5zM324 717q0 -183 88.5 -334t239 -236.5t327.5 -85.5q178 0 327.5 84 t238.5 235.5t89 336.5q0 187 -85.5 338t-235.5 235t-334 84q-183 0 -332.5 -84t-236 -235t-86.5 -338zM365 717q0 175 81.5 316.5t222 220.5t310.5 79q172 0 312.5 -79t221 -220.5t80.5 -316.5q0 -130 -48.5 -245t-131.5 -195.5t-196 -127.5t-238 -47q-167 0 -308 80.5 t-223.5 222t-82.5 312.5zM483 717q0 -142 65.5 -260.5t179.5 -187t251 -68.5q210 0 353 148.5t143 367.5q0 222 -140 370t-356 148q-213 0 -354.5 -148t-141.5 -370z" />
<glyph unicode="1" horiz-adv-x="1079" d="M137 1217l582 223h61v-1440h-254v1118l-303 -117zM281 1157l16 -37l348 133v-1159h41v1219z" />
<glyph unicode="2" horiz-adv-x="1394" d="M199 1341q5 5 16 13.5t49.5 29.5t82.5 37t117 29.5t152 13.5q254 0 392.5 -127.5t138.5 -328.5q0 -144 -51.5 -271t-186.5 -274q-36 -39 -103.5 -96.5t-117.5 -95.5l-49 -38h543v-233h-973v133q12 9 33.5 25.5t83 66.5t117.5 98.5t122.5 114t112.5 121.5 q115 135 155.5 235t40.5 205q0 100 -71 168t-195 68q-59 0 -113 -10.5t-90 -25.5t-63.5 -30t-39.5 -25l-13 -11zM305 94h762v41h-643q262 227 360 338q137 156 194.5 286t57.5 271q0 153 -113.5 251.5t-314.5 98.5q-76 0 -146 -18t-102 -36l-32 -19l18 -37q4 3 12 7.5 t34 16.5t54.5 21t72.5 16.5t89 7.5q183 0 285 -87.5t102 -221.5t-55 -257t-188 -275q-54 -62 -165 -162.5t-187.5 -164t-94.5 -77.5z" />
<glyph unicode="3" horiz-adv-x="1372" d="M182 98l90 209q5 -4 13.5 -11.5t39 -25.5t64.5 -32t89 -25.5t114 -11.5q128 0 202 69.5t74 169.5q0 98 -76.5 151.5t-220.5 53.5q-35 0 -75 -6t-63 -12l-23 -6l-64 163q7 6 90 83.5t194 180t175 158.5h-549v234h893v-178q-273 -258 -451 -424q443 -43 443 -406 q0 -201 -141.5 -329t-399.5 -128q-79 0 -151.5 12.5t-119 30.5t-81.5 36.5t-50 31.5zM315 139q4 -3 12 -8t36.5 -18.5t61 -23.5t85 -18t108.5 -8q196 0 307 107t111 270q0 168 -135 252t-371 84l549 533v28h-723v-41h650l-549 -536l12 -25q256 9 391 -66t135 -229 q0 -145 -99.5 -240.5t-277.5 -95.5q-86 0 -157.5 18t-100.5 36l-28 18z" />
<glyph unicode="4" horiz-adv-x="1433" d="M180 305v170l324 989l227 -80l-258 -847h377v507h254v-507h151v-232h-151v-305h-254v305h-670zM274 410h682v-316h41v316h158v41h-158v499h-41v-499h-624l264 860l-41 14z" />
<glyph unicode="5" horiz-adv-x="1368" d="M188 98l91 209q5 -4 14 -11.5t41.5 -25.5t69 -32t94.5 -25.5t120 -11.5q128 0 202.5 69.5t74.5 169.5q0 110 -85 173t-228 63q-55 0 -112 -6t-86 -12l-30 -7q-55 52 -63 56v733h794v-234h-526v-338q3 0 35 3t49 3q115 0 207 -23t165 -73t112.5 -137.5t39.5 -208.5 q0 -98 -35 -180.5t-101 -144.5t-170 -97t-234 -35q-83 0 -158.5 12.5t-124.5 30.5t-86 36.5t-54 31.5zM311 131q4 -3 12.5 -8t39 -18t65.5 -22.5t93 -17.5t122 -8q196 0 307 106t111 269q0 97 -33 169.5t-92.5 115t-133.5 62.5t-163 20q-24 0 -70.5 -4.5t-80.5 -9.5l-35 -5 v518h516v41h-557v-602q147 21 227 21q81 0 147.5 -17.5t120 -55t83.5 -102t30 -151.5q0 -144 -99.5 -239t-277.5 -95q-60 0 -114.5 8t-89 19t-60.5 22t-37 19l-12 8z" />
<glyph unicode="6" horiz-adv-x="1433" d="M207 522q0 120 23.5 224.5t72 193t109 162.5t149 145t176 129t205.5 125l143 -223q-224 -103 -376 -235t-191 -252q39 53 115 95t172 42q205 0 323.5 -121t118.5 -346q0 -210 -140 -348t-384 -138q-229 0 -372.5 149.5t-143.5 397.5zM326 508q0 -203 110.5 -324 t292.5 -121q191 0 297.5 108.5t106.5 272.5q0 195 -96.5 297.5t-264.5 102.5q-68 0 -132 -26.5t-107 -64t-80 -85t-56 -81.5t-30 -61q3 95 19.5 177t41 147t64.5 123.5t82 103t102 90.5t115.5 80.5t132.5 77.5l-21 37q-113 -63 -194 -119t-157.5 -132t-123 -159.5 t-74.5 -196t-28 -247.5zM367 465q5 14 10.5 26t25.5 49t41 67t56 68.5t73 64.5t90.5 44.5t108.5 18.5q149 0 234.5 -92t85.5 -267q0 -146 -96 -243t-267 -97q-158 0 -260 103.5t-102 257.5zM483 461q0 -122 69 -190t175 -68t176 67.5t70 190.5t-70 191.5t-176 68.5 q-105 0 -174.5 -69t-69.5 -191z" />
<glyph unicode="7" horiz-adv-x="1355" d="M180 1206v234h994v-133l-244 -555h176v-232h-272l-228 -520h-272l223 520h-219v232h313l197 454h-668zM301 1300h705l-281 -647h-276v-41h258l-224 -518h43l226 518h243v41h-227l299 688h-766v-41z" />
<glyph unicode="8" horiz-adv-x="1478" d="M217 430q0 121 64.5 212.5t167.5 127.5q-85 38 -138 117.5t-53 171.5q0 130 66 223t173 137.5t242 44.5t242.5 -44.5t173.5 -137.5t66 -223q0 -92 -53 -171.5t-138 -117.5q102 -38 167 -129t65 -211q0 -193 -145 -324t-378 -131t-377.5 131t-144.5 324zM338 430 q0 -154 113.5 -262.5t287.5 -108.5q184 0 292 107t108 264q0 115 -75 203.5t-198 134.5q102 38 168 120.5t66 170.5q0 87 -28.5 152.5t-79.5 104t-114 57t-139 18.5t-139.5 -18.5t-114.5 -57t-79.5 -104t-28.5 -152.5q0 -89 65 -173t168 -118q-124 -46 -198 -134t-74 -204z M379 430q0 54 25.5 110t70 103.5t113 78t147.5 30.5t149 -30.5t116 -78t72 -103.5t26 -110q0 -141 -96.5 -235.5t-262.5 -94.5q-156 0 -258 96.5t-102 233.5zM418 1059q0 149 89.5 220t231.5 71t231 -71t89 -220q0 -32 -12 -68t-38 -73t-63 -66t-92 -47.5t-119 -18.5 q-66 0 -120.5 18.5t-90 47.5t-60.5 66t-35.5 72.5t-10.5 68.5zM492 430q0 -109 70 -168t177 -59t177.5 59t70.5 168q0 104 -70.5 161.5t-177.5 57.5t-177 -57.5t-70 -161.5zM532 1059q0 -95 59 -146t148 -51t148 51t59 146t-59 146.5t-148 51.5t-148 -51.5t-59 -146.5z" />
<glyph unicode="9" horiz-adv-x="1433" d="M186 979q0 210 140.5 347.5t384.5 137.5q230 0 373 -149t143 -397q0 -120 -23.5 -224.5t-72 -193t-109 -162.5t-149 -145t-176 -129t-205.5 -125l-144 223q224 103 376 235t191 252q-39 -53 -114.5 -95t-171.5 -42q-205 0 -324 121t-119 346zM301 995q0 -195 96.5 -297 t264.5 -102q69 0 132.5 20.5t106.5 49.5t80 65.5t56 63t30 47.5q-6 -130 -47.5 -238.5t-117.5 -196.5t-170.5 -157t-221.5 -135l20 -37q113 63 194 119t158 132t123.5 159.5t74.5 196t28 247.5q0 203 -110.5 323.5t-292.5 120.5q-191 0 -297.5 -108.5t-106.5 -272.5z M342 995q0 146 96 243t267 97q159 0 260.5 -123t101.5 -309q-5 -12 -18.5 -36t-49 -66t-78.5 -76.5t-112.5 -61t-146.5 -26.5q-150 0 -235 91.5t-85 266.5zM461 979q0 -123 70 -191.5t176 -68.5q105 0 174 69t69 191t-68.5 190t-174.5 68t-176 -67.5t-70 -190.5z" />
<glyph unicode=":" horiz-adv-x="833" d="M266 119q0 62 43 105.5t107 43.5q62 0 104.5 -43.5t42.5 -105.5t-42.5 -106t-104.5 -44q-64 0 -107 44t-43 106zM266 842q0 62 43 105.5t107 43.5q62 0 104.5 -43.5t42.5 -105.5t-42.5 -106t-104.5 -44q-64 0 -107 44t-43 106zM377 117q0 -15 12 -27t27 -12t27 12t12 27 t-12 27t-27 12t-27 -12t-12 -27zM377 840q0 -15 12 -27t27 -12t27 12t12 27t-12 27t-27 12t-27 -12t-12 -27z" />
<glyph unicode=";" horiz-adv-x="866" d="M274 121q0 64 44.5 108.5t109.5 44.5q84 0 125 -55t41 -147q0 -202 -229 -367l-60 70q51 39 94 99.5t43 90.5v4q-4 -2 -14 -2q-66 0 -110 44.5t-44 109.5zM279 844q0 61 42.5 104t106.5 43q63 0 106.5 -43.5t43.5 -103.5q0 -62 -43.5 -106t-106.5 -44q-64 0 -106.5 44 t-42.5 106zM391 117q0 -15 12 -27t27 -12t27 12t12 27t-12 27t-27 12t-27 -12t-12 -27zM391 840q0 -15 12 -27t27 -12t27 12t12 27t-12 27t-27 12t-27 -12t-12 -27z" />
<glyph unicode="&#x3c;" horiz-adv-x="1087" d="M195 424v211l624 393v-223l-450 -275l450 -276v-219zM270 461l459 -287v47l-418 260v101l418 254v47l-459 -277v-145z" />
<glyph unicode="=" horiz-adv-x="1357" d="M264 711v198h826v-198h-826zM266 248v198h826v-198h-826zM358 788h637v41h-637v-41zM360 326h637v41h-637v-41z" />
<glyph unicode="&#x3e;" horiz-adv-x="1089" d="M268 35v219l451 276l-451 275v223l625 -393v-211zM358 174l459 287v145l-459 277v-47l418 -254v-101l-418 -260v-47z" />
<glyph unicode="?" horiz-adv-x="1124" d="M176 1391q183 94 340 94q108 0 195 -31.5t141 -85.5t82.5 -122t28.5 -144q0 -69 -22 -127.5t-57 -100t-77 -79t-84 -73t-77 -73.5t-57 -89t-22 -111v-46h-207v76q0 70 19 129.5t48.5 101.5t66 79t73 69t66 64t48.5 72t19 85q0 87 -60.5 131.5t-170.5 44.5 q-64 0 -126 -17.5t-92 -34.5l-30 -17zM268 1337l11 -39q54 25 79.5 35t72.5 19.5t104 9.5q132 0 205 -75.5t73 -184.5q0 -56 -20.5 -105.5t-53 -86.5t-72 -72t-79.5 -70.5t-72.5 -74.5t-53 -91t-20.5 -113h41q1 57 22 106.5t54 87t72.5 72t78.5 70t71.5 74t52.5 90.5t20 113 q0 127 -83.5 214t-235.5 87q-89 0 -139.5 -14t-127.5 -52zM307 123q0 64 44.5 108.5t109.5 44.5q64 0 108.5 -45t44.5 -108q0 -65 -44.5 -109.5t-108.5 -44.5q-66 0 -110 44.5t-44 109.5zM422 121q0 -15 12 -27t27 -12t27 12t12 27t-12 27t-27 12t-27 -12t-12 -27z" />
<glyph unicode="@" horiz-adv-x="2371" d="M201 559q0 204 70 376.5t196 294.5t310.5 190.5t406.5 68.5q220 0 402.5 -65t308 -180t195 -278t69.5 -356q0 -148 -43.5 -261.5t-120 -181.5t-174.5 -102t-215 -34q-79 0 -122.5 28t-58.5 88v3q-133 -138 -333 -138q-223 0 -346 144t-123 372q0 221 143 361.5t387 140.5 q129 0 236 -46t174 -138.5t67 -214.5v-375q1 -31 12 -42t37 -11q133 0 203 96t70 311q0 214 -96.5 372.5t-270 241.5t-401.5 83q-349 0 -560.5 -201.5t-211.5 -546.5q0 -244 101.5 -428.5t309.5 -294.5l-108 -166q-173 82 -290.5 224t-170.5 308.5t-53 356.5zM283 559 q0 -272 105 -466t292 -312l20 33q-177 111 -276.5 298t-99.5 447q0 242 104.5 428t300.5 289.5t455 103.5q256 0 450 -97t298 -271.5t104 -401.5q0 -122 -30.5 -215.5t-85 -149.5t-123.5 -84t-150 -28q-54 0 -76.5 25t-22.5 55v418q0 104 -55.5 180.5t-143.5 114t-196 37.5 q-208 0 -328 -121t-120 -314q0 -199 106.5 -323.5t300.5 -124.5q37 0 73 6t63.5 13.5t58.5 22.5t49.5 25.5t46 31.5t38.5 30.5t36 31.5t30 27v-55q0 -20 6.5 -39t21 -38.5t43.5 -31.5t69 -12q89 0 165 30.5t136 91t94.5 162t34.5 234.5q0 239 -109 423t-312 286t-472 102 q-204 0 -373 -63t-284.5 -176t-179.5 -272.5t-64 -350.5zM745 528q0 174 109.5 284t298.5 110q150 0 252 -77t102 -214v-305l-17.5 -17.5l-23.5 -23.5t-27 -25.5t-33 -28.5t-36.5 -26.5t-43 -26.5t-46.5 -22t-52 -19t-55.5 -11.5t-60.5 -4.5q-173 0 -270 114t-97 293z M836 526q0 -161 79 -246t232 -85q161 0 272 120v316q0 101 -76 159t-202 58q-130 0 -217.5 -91.5t-87.5 -230.5z" />
<glyph unicode="A" horiz-adv-x="1650" d="M121 0l676 1452h57l676 -1452h-273l-127 287h-618l-125 -287h-266zM262 94h45l129 273h774l129 -273h43l-540 1151h-31zM453 403l366 775h12l363 -775h-741zM602 489h438l-219 496z" />
<glyph unicode="B" horiz-adv-x="1552" d="M299 0v1440h461q269 0 402.5 -102t133.5 -279q0 -116 -65 -198.5t-187 -125.5q146 -42 218.5 -125.5t72.5 -201.5q0 -125 -75.5 -218.5t-205 -141.5t-294.5 -48h-461zM401 88h359q128 0 231.5 35.5t167.5 109.5t64 175q0 80 -56.5 153t-147.5 117.5t-188 48.5 q138 6 245.5 107.5t107.5 224.5q0 137 -107.5 215t-316.5 78h-359v-1264zM442 129v576h312q186 0 307 -88t121 -209q0 -130 -120.5 -204.5t-301.5 -74.5h-318zM442 745v566h318q188 0 285.5 -67t97.5 -185q0 -120 -115 -217t-274 -97h-312zM553 233h219q151 0 220 56.5 t69 144.5q0 39 -17.5 73t-56 63t-109.5 46t-167 17h-158v-400zM553 815h182h5q142 0 216 61q76 62 76 152q0 79 -64 128.5t-196 49.5h-219v-391z" />
<glyph unicode="C" horiz-adv-x="1677" d="M203 721q0 153 62 291t166 237t247.5 157t300.5 58q88 0 173 -12t143 -29t103 -34t67 -29l22 -12l-88 -218q-21 11 -58 26.5t-136.5 42t-182.5 26.5q-250 0 -397.5 -141.5t-147.5 -366.5q0 -217 148 -359.5t372 -142.5q108 0 212.5 24.5t154.5 48.5l51 25l78 -217 q-8 -5 -22 -13t-62 -29t-100 -37t-132.5 -29t-162.5 -13q-179 0 -331.5 57t-257 156t-163.5 237t-59 296zM309 717q0 -139 51.5 -259t141.5 -204.5t217 -133t274 -48.5q70 0 135.5 7.5t109.5 18t77.5 21.5t48.5 19l16 7l-12 41q-6 -3 -16.5 -8t-47 -17.5t-77 -22t-104 -17.5 t-130.5 -8q-184 0 -331 77.5t-229.5 215.5t-82.5 311q0 271 176 440.5t471 169.5q81 0 168 -18t134 -36l47 -18l16 37q-20 9 -54 21.5t-130.5 33.5t-180.5 21q-314 0 -501 -181t-187 -470z" />
<glyph unicode="D" horiz-adv-x="1818" d="M299 0v1440h543q220 0 396 -92t275 -256.5t99 -370.5q0 -152 -59 -286t-160.5 -229.5t-245 -150.5t-305.5 -55h-543zM403 92h414q191 0 346.5 79.5t245.5 223t90 322.5q0 274 -192 452.5t-490 178.5h-414v-1256zM444 133v1174h373q280 0 460.5 -167t180.5 -423 q0 -167 -85 -301t-231.5 -208.5t-324.5 -74.5h-373zM555 233h289q211 0 353 137.5t142 346.5q0 213 -139.5 351t-355.5 138h-289v-973z" />
<glyph unicode="E" horiz-adv-x="1476" d="M299 0v1440h936v-234h-682v-403h618v-225h-618v-345h682v-233h-936zM401 92h752v41h-711v529h645v40h-645v601h711v40h-752v-1251z" />
<glyph unicode="F" horiz-adv-x="1415" d="M299 0v1440h936v-234h-684v-420h606v-225h-606v-561h-252zM401 92h41v559h619v41h-619v611h699v40h-740v-1251z" />
<glyph unicode="G" horiz-adv-x="1794" d="M205 721q0 153 62 291t166 237t247.5 157t300.5 58q90 0 175.5 -12t143 -29t102.5 -34t66 -29l21 -12l-88 -218q-8 4 -21.5 10.5t-56 22.5t-85 28.5t-102 23t-112.5 10.5q-250 0 -397.5 -141.5t-147.5 -366.5q0 -217 148 -359.5t372 -142.5q175 0 328 57v256h-401v228 h647v-617q-9 -7 -25.5 -18t-72 -39t-116 -50t-154 -39.5t-189.5 -17.5q-179 0 -331.5 57t-257 156t-163.5 237t-59 296zM311 717q0 -139 51.5 -259t141.5 -204.5t217 -133t274 -48.5q84 0 163.5 11.5t133 28.5t95.5 34t61 28l20 12v471h-448v-41h407v-407q-59 -34 -170 -65 t-262 -31q-184 0 -331 77.5t-229.5 215.5t-82.5 311q0 271 176 440.5t471 169.5q81 0 168 -18t134 -36l47 -18l16 37q-20 9 -54 21.5t-130.5 33.5t-180.5 21q-314 0 -501 -181t-187 -470z" />
<glyph unicode="H" horiz-adv-x="1808" d="M299 0v1440h254v-647h702v645h254v-1438h-254v567h-702v-567h-254zM406 94h40v561h916v-561h41v1249h-41v-647h-916v647h-40v-1249z" />
<glyph unicode="I" horiz-adv-x="851" d="M299 0v1440h254v-1440h-254zM406 94h40v1249h-40v-1249z" />
<glyph unicode="J" horiz-adv-x="1220" d="M88 82l96 209q5 -3 14 -8.5t37.5 -19.5t58 -24.5t73 -19t84.5 -8.5q58 0 100 15t66 39t38 63t18.5 77t4.5 91v944h258v-946q0 -255 -113 -387t-368 -132q-64 0 -125 11t-103 26.5t-74.5 31.5t-48.5 27zM213 121q124 -53 242 -53q202 0 290.5 109t88.5 317v849h-41v-849 q0 -189 -78.5 -287t-259.5 -98q-110 0 -226 49z" />
<glyph unicode="K" horiz-adv-x="1615" d="M299 0v1440h254v-705l612 705h310l-664 -758l696 -682h-317l-637 616v-616h-254zM403 94h41v1249h-41v-1249zM629 682l600 -588h57l-600 588l576 661h-58z" />
<glyph unicode="L" horiz-adv-x="1349" d="M297 0v1440h254v-1207h682v-233h-936zM399 92h752v41h-711v1210h-41v-1251z" />
<glyph unicode="M" horiz-adv-x="2045" d="M279 0l40 1446h113l598 -1049l584 1049h112l41 -1446h-249l-7 827l-444 -839h-88l-449 825l-4 -813h-247zM375 94h41l33 1043l581 -1018l567 1026l25 -1051h41l-27 1200l-604 -1089l-620 1079z" />
<glyph unicode="N" horiz-adv-x="1822" d="M299 0v1448h80l891 -928v920h254v-1450h-68l-903 903v-893h-254zM406 94h40v1053l981 -979v1175h-41v-1077l-980 979v-1151z" />
<glyph unicode="O" horiz-adv-x="1947" d="M205 721q0 153 59.5 291t162 237t245 157t301.5 58q220 0 396 -95.5t275 -265.5t99 -382q0 -157 -59 -295t-160.5 -236.5t-245 -155.5t-305.5 -57q-163 0 -305.5 56.5t-244 155t-160 237t-58.5 295.5zM319 717q0 -183 89 -334t239.5 -236.5t327.5 -85.5q178 0 327.5 84 t238.5 235.5t89 336.5q0 187 -85.5 338t-235.5 235t-334 84q-137 0 -258 -49.5t-208.5 -135.5t-138.5 -209t-51 -263zM360 717q0 175 81.5 316.5t222.5 220.5t311 79q172 0 312.5 -79t221 -220.5t80.5 -316.5q0 -130 -48.5 -245t-131.5 -195.5t-196 -127.5t-238 -47 q-167 0 -308 80.5t-224 222t-83 312.5zM479 717q0 -142 65.5 -260.5t179.5 -187t251 -68.5q210 0 352.5 148.5t142.5 367.5q0 146 -63 264.5t-176.5 186t-255.5 67.5q-213 0 -354.5 -148t-141.5 -370z" />
<glyph unicode="P" horiz-adv-x="1486" d="M299 0v1440h440q279 0 427.5 -139.5t148.5 -372.5q0 -236 -155.5 -373t-469.5 -137h-137v-418h-254zM403 94h41v406h269q251 0 371 114t120 314q0 194 -113.5 305t-336.5 115h-351v-1254zM444 541v766h310q203 -4 306 -103.5t103 -275.5q0 -181 -110 -284t-340 -103h-269 zM553 643h168q168 0 243.5 78t75.5 207q0 278 -319 278h-168v-563z" />
<glyph unicode="Q" horiz-adv-x="1947" d="M205 721q0 153 59.5 291t162 237t245 157t301.5 58q220 0 396 -95.5t275 -265.5t99 -382q0 -195 -88.5 -356t-243.5 -259l277 -249l-154 -176l-356 321q-118 -25 -205 -25q-163 0 -305.5 56.5t-244 155t-160 237t-58.5 295.5zM319 717q0 -183 89 -334t239.5 -236.5 t327.5 -85.5q121 0 233 41l314 -286l28 28l-301 275q172 77 276.5 236.5t104.5 361.5q0 187 -85.5 338t-235.5 235t-334 84q-137 0 -258 -49.5t-208.5 -135.5t-138.5 -209t-51 -263zM360 717q0 175 81.5 316.5t222.5 220.5t311 79q172 0 312.5 -79t221 -220.5t80.5 -316.5 q0 -130 -48.5 -245t-131.5 -195.5t-196 -127.5t-238 -47q-167 0 -308 80.5t-224 222t-83 312.5zM479 717q0 -142 65.5 -260.5t179.5 -187t251 -68.5q133 0 247.5 70.5t181 189.5t66.5 256q0 146 -63 264.5t-176.5 186t-255.5 67.5q-213 0 -354.5 -148t-141.5 -370z" />
<glyph unicode="R" horiz-adv-x="1595" d="M299 0v1440h461q279 0 427 -139.5t148 -372.5q0 -153 -65 -266t-197 -175l369 -487h-297l-305 424q-62 -6 -129 -6h-158v-418h-254zM403 94h41v406h289q81 0 148 12l321 -418h51l-327 428q152 39 225.5 144.5t73.5 261.5q0 194 -113.5 305t-337.5 115h-371v-1254z M444 541v766h330q203 -4 306.5 -103.5t103.5 -275.5q0 -180 -110.5 -283.5t-340.5 -103.5h-289zM553 643h188q168 0 244 78t76 207q0 278 -320 278h-188v-563z" />
<glyph unicode="S" horiz-adv-x="1370" d="M193 113l88 229q90 -61 192.5 -95t198.5 -34q121 0 184.5 51t63.5 125q0 51 -24 87t-92.5 75.5t-197.5 87.5q-203 74 -290 173.5t-87 234.5q0 82 33 157t93.5 133t153 92.5t204.5 34.5q110 0 217 -28t180 -70l-82 -225q-172 96 -321 96q-109 0 -165.5 -52t-56.5 -132 q0 -68 63.5 -118t217.5 -106q120 -47 200.5 -95t127.5 -102t66.5 -112t19.5 -131q0 -192 -137.5 -303t-378.5 -111q-123 0 -245.5 37.5t-225.5 100.5zM315 162q104 -47 180 -67.5t171 -20.5q103 0 182 24.5t126 67.5t70 95t23 112q0 67 -14 114.5t-54 95.5t-117 88.5 t-198 78.5q-156 50 -226.5 121t-70.5 180q0 115 85.5 194.5t234.5 79.5q78 0 134.5 -9.5t129.5 -41.5l14 39q-116 53 -278 53q-169 0 -265 -91.5t-96 -223.5q0 -123 79 -205.5t247 -136.5q110 -35 181 -72t108.5 -80t51 -85t13.5 -99q0 -110 -90 -184t-270 -74 q-88 0 -159.5 19.5t-174.5 64.5z" />
<glyph unicode="T" horiz-adv-x="1443" d="M117 1206v234h1210v-234h-473v-1206h-256v1206h-481zM213 1303h494v-1209h41v1209h483v40h-1018v-40z" />
<glyph unicode="U" d="M283 596v844h254v-844q0 -389 342 -389q350 0 350 391v842h254v-844q0 -158 -43.5 -278t-124 -195t-190 -112.5t-246.5 -37.5q-280 0 -438 155t-158 468zM387 580q0 -253 130.5 -383.5t361.5 -130.5q228 0 358.5 132.5t130.5 389.5v760h-41v-760q0 -237 -120 -359.5 t-328 -122.5q-211 0 -331 121t-120 353v761h-41v-761z" />
<glyph unicode="V" horiz-adv-x="1654" d="M117 1440h272l440 -983l443 983h266l-668 -1458h-86zM270 1341l547 -1191h31l543 1191h-43l-510 -1124h-13l-510 1124h-45z" />
<glyph unicode="W" horiz-adv-x="2265" d="M152 1440h280l273 -918l387 932h84l391 -930l270 916h277l-449 -1458h-88l-447 972l-440 -972h-86zM303 1343l344 -1179h33l450 1028h5l450 -1028h35l354 1179h-47l-332 -1107l-448 1024h-33l-446 -1018l-320 1101h-45z" />
<glyph unicode="X" horiz-adv-x="1638" d="M139 0l523 688l-521 752h305l373 -553l383 553h295l-522 -731l524 -709h-307l-377 510l-375 -510h-301zM328 94h49l438 586l434 -586h49l-450 617l465 632h-51l-445 -604l-438 604h-51l456 -632z" />
<glyph unicode="Y" horiz-adv-x="1536" d="M111 1440h292l367 -637l367 637h286l-528 -871v-569h-256v571zM293 1343l455 -772v-477h40v477l461 772h-47l-434 -725l-430 725h-45z" />
<glyph unicode="Z" horiz-adv-x="1564" d="M170 0v78l786 1128h-733v234h1155v-78l-788 -1129h770v-233h-1190zM305 94h965v41h-885l846 1206h-891v-41h811z" />
<glyph unicode="[" horiz-adv-x="929" d="M289 -442v1882h452v-178h-258v-1528h258v-176h-452zM369 -377h280v41h-239v1665h237v41h-278v-1747z" />
<glyph unicode="\" horiz-adv-x="935" d="M131 1450h182l490 -1892h-185zM229 1343l418 -1652h43l-418 1652h-43z" />
<glyph unicode="]" horiz-adv-x="929" d="M188 -266h258v1528h-258v178h453v-1882h-453v176zM281 -336v-41h280v1747h-278v-41h237v-1665h-239z" />
<glyph unicode="^" horiz-adv-x="1193" d="M252 944l303 363h92l295 -363h-219l-133 172l-131 -172h-207zM410 1038h53l135 162q26 -34 65.5 -81t65.5 -81h55l-163 199h-46z" />
<glyph unicode="_" horiz-adv-x="1597" d="M264 0v139h1065v-139h-1065zM358 49h877v41h-877v-41z" />
<glyph unicode="`" horiz-adv-x="1308" d="M418 1061l74 201l450 -226l-41 -114zM504 1116l340 -129l14 37l-338 129z" />
<glyph unicode="a" d="M283 0v821q0 325 154 484t442 159q289 0 446.5 -159.5t157.5 -483.5v-821h-256v344h-688v-344h-256zM391 94h41v332h899v-332h41v760q0 257 -130.5 389.5t-358.5 132.5q-231 0 -361.5 -130.5t-130.5 -383.5v-768zM432 467v395q0 232 119.5 352.5t331.5 120.5 q208 0 328 -122t120 -359v-387h-899zM539 545q127 2 688 2v272q0 412 -344 412q-159 0 -251.5 -100.5t-92.5 -309.5v-276z" />
<glyph unicode="b" horiz-adv-x="1552" d="M299 0v1440h461q269 0 402.5 -102t133.5 -279q0 -116 -65 -198.5t-187 -125.5q146 -42 218.5 -125.5t72.5 -201.5q0 -125 -75.5 -218.5t-205 -141.5t-294.5 -48h-461zM401 88h359q128 0 231.5 35.5t167.5 109.5t64 175q0 80 -56.5 153t-147.5 117.5t-188 48.5 q138 6 245.5 107.5t107.5 224.5q0 137 -107.5 215t-316.5 78h-359v-1264zM442 129v576h312q186 0 307 -88t121 -209q0 -130 -120.5 -204.5t-301.5 -74.5h-318zM442 745v566h318q188 0 285.5 -67t97.5 -185q0 -120 -115 -217t-274 -97h-312zM553 233h219q151 0 220 56.5 t69 144.5q0 39 -17.5 73t-56 63t-109.5 46t-167 17h-158v-400zM553 815h182h5q142 0 216 61q76 62 76 152q0 79 -64 128.5t-196 49.5h-219v-391z" />
<glyph unicode="c" horiz-adv-x="1677" d="M205 721q0 153 62 291t166 237t247.5 157t300.5 58q88 0 173 -12t143 -29t103 -34t67 -29l22 -12l-88 -218q-21 11 -58 26.5t-136.5 42t-182.5 26.5q-250 0 -397.5 -141.5t-147.5 -366.5q0 -217 148 -359.5t372 -142.5q108 0 212.5 24.5t154.5 48.5l51 25l78 -217 q-8 -5 -22 -13t-62 -29t-100 -37t-132.5 -29t-162.5 -13q-179 0 -331.5 57t-257 156t-163.5 237t-59 296zM311 717q0 -139 51.5 -259t141.5 -204.5t217 -133t274 -48.5q70 0 135.5 7.5t109.5 18t77.5 21.5t48.5 19l16 7l-12 41q-6 -3 -16.5 -8t-47 -17.5t-77 -22t-104 -17.5 t-130.5 -8q-184 0 -331 77.5t-229.5 215.5t-82.5 311q0 271 176 440.5t471 169.5q81 0 168 -18t134 -36l47 -18l16 37q-20 9 -54 21.5t-130.5 33.5t-180.5 21q-314 0 -501 -181t-187 -470z" />
<glyph unicode="d" horiz-adv-x="1818" d="M299 0v1440h543q220 0 396 -92t275 -256.5t99 -370.5q0 -152 -59 -286t-160.5 -229.5t-245 -150.5t-305.5 -55h-543zM403 92h414q191 0 346.5 79.5t245.5 223t90 322.5q0 274 -192 452.5t-490 178.5h-414v-1256zM444 133v1174h373q280 0 460.5 -167t180.5 -423 q0 -167 -85 -301t-231.5 -208.5t-324.5 -74.5h-373zM555 233h289q211 0 353 137.5t142 346.5q0 213 -139.5 351t-355.5 138h-289v-973z" />
<glyph unicode="e" horiz-adv-x="1476" d="M299 0v1440h936v-234h-682v-403h618v-225h-618v-345h682v-233h-936zM401 92h752v41h-711v529h645v40h-645v601h711v40h-752v-1251z" />
<glyph unicode="f" horiz-adv-x="1415" d="M299 0v1440h936v-234h-684v-420h606v-225h-606v-561h-252zM401 92h41v559h619v41h-619v611h699v40h-740v-1251z" />
<glyph unicode="g" horiz-adv-x="1794" d="M205 721q0 153 62 291t166 237t247.5 157t300.5 58q90 0 175.5 -12t143 -29t102.5 -34t66 -29l21 -12l-88 -218q-8 4 -21.5 10.5t-56 22.5t-85 28.5t-102 23t-112.5 10.5q-250 0 -397.5 -141.5t-147.5 -366.5q0 -217 148 -359.5t372 -142.5q175 0 328 57v256h-401v228 h647v-617q-9 -7 -25.5 -18t-72 -39t-116 -50t-154 -39.5t-189.5 -17.5q-179 0 -331.5 57t-257 156t-163.5 237t-59 296zM311 717q0 -139 51.5 -259t141.5 -204.5t217 -133t274 -48.5q84 0 163.5 11.5t133 28.5t95.5 34t61 28l20 12v471h-448v-41h407v-407q-59 -34 -170 -65 t-262 -31q-184 0 -331 77.5t-229.5 215.5t-82.5 311q0 271 176 440.5t471 169.5q81 0 168 -18t134 -36l47 -18l16 37q-20 9 -54 21.5t-130.5 33.5t-180.5 21q-314 0 -501 -181t-187 -470z" />
<glyph unicode="h" horiz-adv-x="1808" d="M299 0v1440h254v-647h702v645h254v-1438h-254v567h-702v-567h-254zM406 94h40v561h916v-561h41v1249h-41v-647h-916v647h-40v-1249z" />
<glyph unicode="i" horiz-adv-x="851" d="M299 0v1440h254v-1440h-254zM406 94h40v1249h-40v-1249z" />
<glyph unicode="j" horiz-adv-x="1220" d="M88 82l96 209q5 -3 14 -8.5t37.5 -19.5t58 -24.5t73 -19t84.5 -8.5q58 0 100 15t66 39t38 63t18.5 77t4.5 91v944h258v-946q0 -255 -113 -387t-368 -132q-64 0 -125 11t-103 26.5t-74.5 31.5t-48.5 27zM213 121q124 -53 242 -53q202 0 290.5 109t88.5 317v849h-41v-849 q0 -189 -78.5 -287t-259.5 -98q-110 0 -226 49z" />
<glyph unicode="k" horiz-adv-x="1615" d="M299 0v1440h254v-705l612 705h310l-664 -758l696 -682h-317l-637 616v-616h-254zM403 94h41v1249h-41v-1249zM629 682l600 -588h57l-600 588l576 661h-58z" />
<glyph unicode="l" horiz-adv-x="1349" d="M299 0v1440h254v-1207h682v-233h-936zM401 92h752v41h-711v1210h-41v-1251z" />
<glyph unicode="m" horiz-adv-x="2045" d="M279 0l40 1446h113l598 -1049l584 1049h112l41 -1446h-249l-7 827l-444 -839h-88l-449 825l-4 -813h-247zM375 94h41l33 1043l581 -1018l567 1026l25 -1051h41l-27 1200l-604 -1089l-620 1079z" />
<glyph unicode="n" horiz-adv-x="1822" d="M299 0v1448h80l891 -928v920h254v-1450h-68l-903 903v-893h-254zM406 94h40v1053l981 -979v1175h-41v-1077l-980 979v-1151z" />
<glyph unicode="o" horiz-adv-x="1947" d="M205 721q0 153 59.5 291t162 237t245 157t301.5 58q220 0 396 -95.5t275 -265.5t99 -382q0 -157 -59 -295t-160.5 -236.5t-245 -155.5t-305.5 -57q-163 0 -305.5 56.5t-244 155t-160 237t-58.5 295.5zM319 717q0 -183 89 -334t239.5 -236.5t327.5 -85.5q178 0 327.5 84 t238.5 235.5t89 336.5q0 187 -85.5 338t-235.5 235t-334 84q-137 0 -258 -49.5t-208.5 -135.5t-138.5 -209t-51 -263zM360 717q0 175 81.5 316.5t222.5 220.5t311 79q172 0 312.5 -79t221 -220.5t80.5 -316.5q0 -130 -48.5 -245t-131.5 -195.5t-196 -127.5t-238 -47 q-167 0 -308 80.5t-224 222t-83 312.5zM479 717q0 -142 65.5 -260.5t179.5 -187t251 -68.5q210 0 352.5 148.5t142.5 367.5q0 146 -63 264.5t-176.5 186t-255.5 67.5q-213 0 -354.5 -148t-141.5 -370z" />
<glyph unicode="p" horiz-adv-x="1486" d="M299 0v1440h440q279 0 427.5 -139.5t148.5 -372.5q0 -236 -155.5 -373t-469.5 -137h-137v-418h-254zM403 94h41v406h269q251 0 371 114t120 314q0 194 -113.5 305t-336.5 115h-351v-1254zM444 541v766h310q203 -4 306 -103.5t103 -275.5q0 -181 -110 -284t-340 -103h-269 zM553 643h168q168 0 243.5 78t75.5 207q0 278 -319 278h-168v-563z" />
<glyph unicode="q" horiz-adv-x="1947" d="M205 721q0 153 59.5 291t162 237t245 157t301.5 58q220 0 396 -95.5t275 -265.5t99 -382q0 -195 -88.5 -356t-243.5 -259l277 -249l-154 -176l-356 321q-118 -25 -205 -25q-163 0 -305.5 56.5t-244 155t-160 237t-58.5 295.5zM319 717q0 -183 89 -334t239.5 -236.5 t327.5 -85.5q121 0 233 41l314 -286l28 28l-301 275q172 77 276.5 236.5t104.5 361.5q0 187 -85.5 338t-235.5 235t-334 84q-137 0 -258 -49.5t-208.5 -135.5t-138.5 -209t-51 -263zM360 717q0 175 81.5 316.5t222.5 220.5t311 79q172 0 312.5 -79t221 -220.5t80.5 -316.5 q0 -130 -48.5 -245t-131.5 -195.5t-196 -127.5t-238 -47q-167 0 -308 80.5t-224 222t-83 312.5zM479 717q0 -142 65.5 -260.5t179.5 -187t251 -68.5q133 0 247.5 70.5t181 189.5t66.5 256q0 146 -63 264.5t-176.5 186t-255.5 67.5q-213 0 -354.5 -148t-141.5 -370z" />
<glyph unicode="r" horiz-adv-x="1615" d="M299 0v1440h461q279 0 427 -139.5t148 -372.5q0 -81 -25.5 -164t-88.5 -165t-154 -126q32 -28 69.5 -76.5t63 -82t72 -59.5t106.5 -26h58v-225q-54 -12 -138 -12q-73 0 -131.5 18.5t-96.5 49.5t-68.5 69.5t-54.5 81.5t-46 81.5t-51.5 73.5t-63.5 54q-25 -2 -75 -2h-158 v-418h-254zM403 94h41v406h289q69 0 121 8q41 -25 72 -65t67 -103q23 -39 32 -54t32.5 -49t38.5 -49t41.5 -38t51.5 -33t59.5 -18.5t72.5 -8.5v41q-37 0 -69 7.5t-59 25.5t-46.5 34.5t-42 47t-34.5 49.5t-34 55q-4 7 -6 10q-66 112 -121 158q316 80 316 410 q0 194 -113.5 305t-337.5 115h-371v-1254zM444 541v766h330q203 -4 306.5 -103.5t103.5 -275.5q0 -180 -110.5 -283.5t-340.5 -103.5h-289zM553 643h188q168 0 244 78t76 207q0 278 -320 278h-188v-563z" />
<glyph unicode="s" horiz-adv-x="1370" d="M193 113l88 229q90 -61 192.5 -95t198.5 -34q121 0 184.5 51t63.5 125q0 51 -24 87t-92.5 75.5t-197.5 87.5q-203 74 -290 173.5t-87 234.5q0 82 33 157t93.5 133t153 92.5t204.5 34.5q110 0 217 -28t180 -70l-82 -225q-172 96 -321 96q-109 0 -165.5 -52t-56.5 -132 q0 -68 63.5 -118t217.5 -106q120 -47 200.5 -95t127.5 -102t66.5 -112t19.5 -131q0 -192 -137.5 -303t-378.5 -111q-123 0 -245.5 37.5t-225.5 100.5zM315 162q104 -47 180 -67.5t171 -20.5q103 0 182 24.5t126 67.5t70 95t23 112q0 67 -14 114.5t-54 95.5t-117 88.5 t-198 78.5q-156 50 -226.5 121t-70.5 180q0 115 85.5 194.5t234.5 79.5q78 0 134.5 -9.5t129.5 -41.5l14 39q-116 53 -278 53q-169 0 -265 -91.5t-96 -223.5q0 -123 79 -205.5t247 -136.5q110 -35 181 -72t108.5 -80t51 -85t13.5 -99q0 -110 -90 -184t-270 -74 q-88 0 -159.5 19.5t-174.5 64.5z" />
<glyph unicode="t" horiz-adv-x="1443" d="M117 1206v234h1210v-234h-473v-1206h-256v1206h-481zM213 1303h494v-1209h41v1209h483v40h-1018v-40z" />
<glyph unicode="u" d="M283 596v844h254v-844q0 -389 342 -389q350 0 350 391v842h254v-844q0 -158 -43.5 -278t-124 -195t-190 -112.5t-246.5 -37.5q-280 0 -438 155t-158 468zM387 580q0 -253 130.5 -383.5t361.5 -130.5q228 0 358.5 132.5t130.5 389.5v760h-41v-760q0 -237 -120 -359.5 t-328 -122.5q-211 0 -331 121t-120 353v761h-41v-761z" />
<glyph unicode="v" horiz-adv-x="1654" d="M117 1440h272l440 -983l443 983h266l-668 -1458h-86zM270 1341l547 -1191h31l543 1191h-43l-510 -1124h-13l-510 1124h-45z" />
<glyph unicode="w" horiz-adv-x="2265" d="M152 1440h280l273 -918l387 932h84l391 -930l270 916h277l-449 -1458h-88l-447 972l-440 -972h-86zM303 1343l344 -1179h33l450 1028h5l450 -1028h35l354 1179h-47l-332 -1107l-448 1024h-33l-446 -1018l-320 1101h-45z" />
<glyph unicode="x" horiz-adv-x="1638" d="M139 0l523 688l-521 752h305l373 -553l383 553h295l-522 -731l524 -709h-307l-377 510l-375 -510h-301zM328 94h49l438 586l434 -586h49l-450 617l465 632h-51l-445 -604l-438 604h-51l456 -632z" />
<glyph unicode="y" horiz-adv-x="1593" d="M199 1116v324h256v-324q0 -209 92.5 -309t251.5 -100q344 0 344 411v322h256v-324q0 -287 -123.5 -444.5t-353.5 -190.5v-481h-252v481q-229 31 -350 189t-121 446zM311 1075q0 -247 123.5 -377.5t345.5 -136.5v-467h41v467q220 5 345.5 137t125.5 385v260h-41v-260 q0 -237 -120 -359t-328 -122q-212 0 -331.5 120.5t-119.5 352.5v262h-41v-262z" />
<glyph unicode="z" horiz-adv-x="1564" d="M170 0v78l786 1128h-733v234h1155v-78l-788 -1129h770v-233h-1190zM305 94h965v41h-885l846 1206h-891v-41h811z" />
<glyph unicode="{" horiz-adv-x="935" d="M176 416v166h47q72 0 99.5 32t27.5 101v364q0 181 99.5 278t287.5 97v-190q-98 0 -143 -46t-45 -159v-330q0 -96 -31 -143.5t-119 -87.5q88 -40 119 -87t31 -145v-327q0 -114 45 -160.5t143 -46.5v-189q-188 0 -287.5 96t-99.5 277v367q0 69 -27.5 101t-99.5 32h-47z M242 446q110 0 148 -39t38 -124v-367q0 -137 67.5 -214t159.5 -77v41q-75 0 -130.5 67t-55.5 183v367q0 91 -50.5 143.5t-142.5 52.5v29q93 0 143 54t50 153v364q0 108 54 178t132 70v41q-94 0 -160.5 -81.5t-66.5 -207.5v-364q0 -91 -39 -132.5t-147 -41.5v-95z" />
<glyph unicode="|" horiz-adv-x="763" d="M289 -442v1912h186v-1912h-186zM365 -358h41v1747h-41v-1747z" />
<glyph unicode="}" horiz-adv-x="935" d="M199 -268q98 0 143 46.5t45 160.5v327q0 98 31 145t119 87q-88 40 -119 87.5t-31 143.5v330q0 113 -45 159t-143 46v190q188 0 287.5 -97t99.5 -278v-364q0 -69 27.5 -101t99.5 -32h47v-166h-47q-72 0 -99.5 -32t-27.5 -101v-367q0 -181 -99.5 -277t-287.5 -96v189z M281 -334v-41q92 0 159.5 77t67.5 214v367q0 85 38 124t148 39v95q-108 0 -147 41.5t-39 132.5v364q0 126 -66.5 207.5t-160.5 81.5v-41q78 0 132 -70t54 -178v-364q0 -99 49.5 -153t142.5 -54v-29q-91 0 -141.5 -52t-50.5 -144v-367q0 -116 -55.5 -183t-130.5 -67z" />
<glyph unicode="~" horiz-adv-x="1413" d="M258 688q4 7 11 19t33 43t57.5 54.5t84.5 42.5t113 19q51 0 99 -18t78.5 -39t65.5 -39t62 -18q25 0 48 10.5t39 26t28 31t18 26.5l6 10l152 -88q-3 -8 -10 -22t-33 -49t-57 -61.5t-83.5 -48.5t-111.5 -22q-48 0 -92 17.5t-71.5 39t-64.5 39t-73 17.5q-27 0 -53.5 -10.5 t-44.5 -26t-33 -30.5t-22 -25l-7 -11zM373 709l33 -25q6 8 17 19.5t51 31t85 19.5q47 0 119 -47q100 -66 182 -66q47 0 89 18.5t61 36t32 35.5l-32 25q-10 -15 -25.5 -29t-50 -29.5t-74.5 -15.5q-77 0 -162 57q-30 20 -45.5 29t-42 18t-51.5 9q-33 0 -64.5 -9t-52.5 -21.5 t-37.5 -25t-24.5 -21.5z" />
<glyph unicode="&#xa1;" horiz-adv-x="806" d="M250 1364q0 65 43.5 109.5t109.5 44.5q65 0 109.5 -45t44.5 -109q0 -63 -45 -108.5t-109 -45.5q-65 0 -109 45t-44 109zM274 0l50 1081h159l49 -1081h-258zM367 1366q0 -15 12 -27t27 -12t26.5 12t11.5 27t-11.5 27t-26.5 12t-27 -12t-12 -27zM383 125h41v854h-41v-854z " />
<glyph unicode="&#xa2;" horiz-adv-x="1435" d="M182 721q0 149 73.5 276.5t200.5 208.5t281 99v196h205v-203q79 -11 150.5 -33.5t103.5 -39.5l31 -17l-72 -194q-18 9 -48 23t-111.5 37.5t-149.5 23.5q-194 0 -309 -106.5t-115 -274.5q0 -161 115 -268t288 -107q89 0 175 22t128 44l41 22l62 -194q-5 -4 -14.5 -9.5 t-42 -21.5t-67.5 -29t-89.5 -26t-110.5 -17v-235h-202v243q-239 40 -381 198.5t-142 381.5zM279 717q0 -209 142 -347.5t367 -150.5v-227h41v227q80 0 151.5 14.5t103.5 28.5l32 14l-12 41q-12 -6 -35 -15.5t-95.5 -25.5t-148.5 -16q-220 0 -363 129.5t-143 327.5 q0 205 143.5 334t383.5 129q64 0 127 -15.5t94 -30.5l31 -16l14 41q-11 6 -32 16t-86 27t-130 19v186h-41v-186q-250 -7 -397 -146t-147 -358z" />
<glyph unicode="&#xa3;" horiz-adv-x="1411" d="M223 233h154v207h-152l-2 234h152v205q-2 274 118.5 416.5t393.5 142.5q59 0 115 -11t94 -27t68 -31.5t44 -26.5l15 -11l-97 -209q-4 3 -12 8.5t-33.5 19.5t-51.5 24.5t-64 19t-74 8.5q-81 0 -134 -24t-79 -71.5t-35.5 -100t-9.5 -127.5v-205h274v-234h-272v-207h539 v-233h-949zM319 94h760v41h-563v397h295v41h-295v197q-3 539 379 539q45 0 91 -15.5t70 -31.5l23 -15l19 39q-10 7 -27.5 17.5t-71 28.5t-104.5 18q-423 0 -420 -580v-197h-156v-41h156v-397h-156v-41z" />
<glyph unicode="&#xa5;" horiz-adv-x="1560" d="M125 1440h293l366 -637l367 637h287l-416 -684h219v-178h-328l-4 -9v-123h332v-178h-332v-268h-256v268h-338v178h338v125l-4 7h-334v178h226zM307 1343l389 -661h-286v-41h311l41 -70v-198h-352v-41h352v-238h41v238h344v41h-344v198l41 70h303v41h-279l396 661h-47 l-435 -725l-430 725h-45z" />
<glyph unicode="&#xa6;" horiz-adv-x="776" d="M295 410h186v-852h-186v852zM295 655v785h186v-785h-186zM371 315v-663h41v663h-41zM371 750h41v596h-41v-596z" />
<glyph unicode="&#xa7;" horiz-adv-x="1370" d="M184 -109l88 230q90 -61 193 -95t199 -34q112 0 169.5 45t57.5 110q0 49 -21.5 83.5t-83 72.5t-178.5 84q-191 75 -273.5 180t-82.5 246q0 152 102 266q-102 102 -102 250q0 153 134.5 266t358.5 113q104 0 205.5 -28t171.5 -70l-82 -226q-66 41 -148 69t-153 28 q-112 0 -171.5 -42t-59.5 -104q0 -66 57.5 -113t202.5 -108q218 -91 300.5 -192t82.5 -254q0 -152 -88 -269q88 -95 88 -237q0 -169 -136 -288.5t-360 -119.5q-123 0 -245.5 37t-225.5 100zM313 -59q5 -4 15.5 -10t44 -21.5t69.5 -27.5t91 -22t110 -10q192 0 291.5 86.5 t99.5 210.5q0 74 -21 128t-81 104q55 59 86 135.5t31 153.5q0 63 -22.5 113.5t-74.5 97t-121.5 87.5t-177.5 91q-133 63 -190 127t-57 151q0 95 85.5 161.5t247.5 66.5q56 0 117.5 -15t95.5 -30l33 -15l14 39q-14 7 -37.5 17.5t-92 27.5t-130.5 17q-182 0 -278 -78.5 t-96 -190.5q0 -75 32 -132.5t107 -108.5q-150 -118 -150 -281q0 -120 83.5 -197t285.5 -165q155 -68 212.5 -139t57.5 -165q0 -107 -89 -181.5t-261 -74.5q-82 0 -160.5 22.5t-116.5 44.5l-38 22zM395 813q0 69 38.5 138.5t107.5 117.5q47 -28 96 -49q215 -98 293 -169.5 t78 -182.5q0 -70 -29.5 -140t-79.5 -125q-68 45 -160 84q-188 79 -266 151.5t-78 174.5zM508 819q0 -72 57.5 -122.5t202.5 -118.5l88 -41q35 46 35 116q0 42 -10.5 73.5t-40.5 64.5t-86.5 65.5t-145.5 67.5q-15 5 -49 22q-51 -51 -51 -127z" />
<glyph unicode="&#xa8;" horiz-adv-x="1308" d="M330 1079q0 54 38 91.5t91 37.5q54 0 91.5 -37.5t37.5 -91.5q0 -53 -37.5 -91t-91.5 -38q-53 0 -91 38t-38 91zM420 1079q0 -15 12 -27t27 -12t27 12t12 27t-12 27t-27 12t-27 -12t-12 -27zM721 1079q0 54 38 91.5t91 37.5q54 0 91.5 -37.5t37.5 -91.5q0 -53 -37.5 -91 t-91.5 -38q-52 0 -90.5 38t-38.5 91zM811 1079q0 -15 12 -27t27 -12t27 12t12 27t-12 27t-27 12t-27 -12t-12 -27z" />
<glyph unicode="&#xa9;" horiz-adv-x="1933" d="M207 719q0 151 60 289t162 238t242.5 159t295.5 59t295.5 -59t242 -159t161.5 -238t60 -289q0 -202 -101.5 -373t-276.5 -271t-381 -100q-155 0 -295.5 59t-242.5 159t-162 237.5t-60 288.5zM272 719q0 -185 92 -343t252 -251.5t351 -93.5q143 0 272.5 55t222.5 148 t148 220t55 265q0 143 -54.5 271t-147.5 219.5t-222.5 145.5t-273.5 54q-143 0 -272 -54t-221.5 -145.5t-147 -219.5t-54.5 -271zM313 719q0 133 51 253.5t138.5 207t208.5 137.5t256 51t257 -51t209.5 -137.5t139 -207t51.5 -253.5q0 -174 -87.5 -323t-239 -236.5 t-330.5 -87.5q-134 0 -255.5 51.5t-208.5 138.5t-138.5 206.5t-51.5 250.5zM375 719q0 -160 79 -295.5t215.5 -215t297.5 -79.5t297.5 79.5t215.5 215t79 295.5t-79 296.5t-215.5 216t-297.5 79.5t-297.5 -79.5t-215.5 -216t-79 -296.5zM580 725q0 174 119 288.5t305 114.5 q134 0 251 -67l-49 -160q-98 55 -202 55q-111 0 -174.5 -63t-63.5 -168q0 -104 64.5 -166.5t175.5 -62.5q109 0 208 57l48 -160q-118 -71 -258 -71q-187 0 -305.5 113.5t-118.5 289.5zM655 725q0 -159 93.5 -250.5t259.5 -91.5q44 0 90 10.5t70 21.5l24 11l-10 37 q-86 -39 -174 -39q-148 0 -230 80t-82 221q0 133 80.5 213t218.5 80q42 0 85.5 -8t65.5 -16l23 -9l9 39q-81 35 -183 35q-157 0 -248.5 -91t-91.5 -243z" />
<glyph unicode="&#xaa;" horiz-adv-x="1052" d="M266 870v336q0 129 67 193.5t191 64.5q125 0 193.5 -64.5t68.5 -193.5v-336h-153v121h-213v-121h-154zM324 928h36v108h334v-108h37v272q0 97 -56 153t-151 56q-94 0 -147 -55.5t-53 -153.5v-272zM360 1071v129q0 79 44.5 125.5t119.5 46.5q76 0 123 -46.5t47 -125.5 v-129h-334zM420 1114h213v92q0 52 -29.5 78.5t-77.5 26.5t-77 -26.5t-29 -78.5v-92z" />
<glyph unicode="&#xab;" horiz-adv-x="1232" d="M195 354l215 334h217l-224 -334l224 -336h-217zM272 354l174 -260h46q-34 52 -86.5 130t-86.5 130l164 254h-47zM549 354l215 334h217l-223 -334l223 -336h-217zM627 354l174 -260h45q-34 52 -86 130t-86 130l164 254h-47z" />
<glyph unicode="&#xac;" horiz-adv-x="1413" d="M266 477v180h879v-448h-197v268h-682zM356 543h668v-248h41v289h-709v-41z" />
<glyph unicode="&#xad;" horiz-adv-x="1040" d="M266 412v178h508v-178h-508zM358 477h324v41h-324v-41z" />
<glyph unicode="&#xae;" horiz-adv-x="1169" d="M217 1087q0 157 107.5 267t259.5 110q154 0 261 -110t107 -267q0 -153 -107.5 -262.5t-260.5 -109.5q-152 0 -259.5 109t-107.5 263zM250 1087q0 -141 97.5 -241.5t236.5 -100.5q140 0 237 100.5t97 241.5q0 144 -97 246.5t-237 102.5q-139 0 -236.5 -103t-97.5 -246z M270 1087q0 134 92 231t222 97q131 0 222 -96.5t91 -231.5q0 -132 -91 -226.5t-222 -94.5q-130 0 -222 94.5t-92 226.5zM301 1087q0 -122 83 -208t200 -86q118 0 200 86.5t82 207.5q0 124 -82 211.5t-200 87.5q-117 0 -200 -88t-83 -211zM442 889v401h119q89 0 132.5 -33 t43.5 -90q0 -37 -20 -69t-55 -51l102 -158h-105l-73 139h-58v-139h-86zM477 924h21v131h57q31 0 45 2l80 -137h20l-82 141q82 23 82 104q0 46 -37 72.5t-104 26.5h-82v-340zM498 1075v168h61q58 0 89.5 -20.5t31.5 -57.5q0 -45 -30 -67.5t-83 -22.5h-69zM528 1098h35 q37 0 58.5 17.5t21.5 49.5q0 24 -20.5 39t-55.5 15h-39v-121z" />
<glyph unicode="&#xaf;" horiz-adv-x="1308" d="M360 971v176h588v-176h-588zM453 1036h401v41h-401v-41z" />
<glyph unicode="&#xb0;" horiz-adv-x="1126" d="M219 1161q0 142 99 238t245 96t245 -96t99 -238t-99.5 -241t-244.5 -99t-244.5 99t-99.5 241zM287 1161q0 -115 82 -196.5t200 -81.5q106 0 187.5 82.5t81.5 195.5t-81.5 193t-187.5 80q-119 0 -200.5 -79t-81.5 -194zM328 1161q0 97 70.5 164.5t170.5 67.5 q91 0 159.5 -68.5t68.5 -163.5q0 -97 -69 -167t-159 -70q-100 0 -170.5 69.5t-70.5 167.5zM397 1161q0 -76 48 -125t118 -49t118 49t48 125q0 74 -48 119t-118 45q-71 0 -118.5 -44.5t-47.5 -119.5z" />
<glyph unicode="&#xb1;" horiz-adv-x="1241" d="M258 135v180h725v-180h-725zM258 645v180h274l3 277l180 -2v-275h268v-180h-268v-262l-183 2v260h-274zM350 205h539v41h-539v-41zM350 713h248v-250h41v250h250v41h-250v247h-41v-247h-248v-41z" />
<glyph unicode="&#xb2;" horiz-adv-x="946" d="M264 1415q7 5 21 13.5t63 22t105 13.5q104 0 162.5 -56.5t58.5 -139.5q0 -63 -19 -101t-65 -84l-98 -104h186v-125h-410v84q111 98 183 184q77 92 77 131q0 32 -22.5 53t-71.5 21q-43 0 -76 -10.5t-45 -20.5l-12 -10zM315 899h299v39h-217l107 115q3 4 19.5 21.5 t20.5 21.5t17 19.5t17 22.5t14 21.5t13 24.5t8 24.5t6.5 29t1.5 30.5q0 61 -45.5 106t-129.5 45q-41 0 -73 -8.5t-44 -17.5l-12 -9l13 -32q40 28 116 28q63 0 99.5 -34t36.5 -78q0 -29 -7.5 -54.5t-26.5 -52t-31.5 -40.5t-41.5 -44l-160 -168v-10z" />
<glyph unicode="&#xb3;" horiz-adv-x="874" d="M248 889l35 131q5 -5 15 -12t43.5 -19t70.5 -12t58.5 15t21.5 34q0 64 -89 64q-14 0 -30 -3t-25 -5l-10 -3l-25 97q80 98 121 149h-158v125h328v-102l-119 -154q146 -27 146 -170q0 -81 -56.5 -132.5t-160.5 -51.5q-50 0 -91.5 12t-58.5 24zM295 913q33 -28 113 -28 q83 0 129.5 38.5t46.5 100.5q0 40 -14.5 68t-40.5 43.5t-53 23t-62 10.5l155 203v33h-247v-39h196l-156 -205l11 -26q45 2 81.5 -5.5t64.5 -34.5t28 -71q0 -43 -36.5 -71.5t-100.5 -28.5q-26 0 -52.5 6.5t-39.5 13.5l-13 6z" />
<glyph unicode="&#xb4;" horiz-adv-x="1308" d="M418 1036l450 226l74 -201l-483 -139zM502 1024l14 -37l340 129l-16 37z" />
<glyph unicode="&#xb6;" horiz-adv-x="1826" d="M176 928q0 233 148.5 372.5t427.5 139.5h874v-234h-164v-1206h-229v1206h-207v-1206h-229v418q-312 0 -466.5 137t-154.5 373zM299 928q0 -396 600 -402v-432h41v1209h385v-1209h41v1209h168v40h-762q-227 0 -350 -114.5t-123 -300.5zM340 928q0 167 113 271t319 104h127 v-736q-284 0 -421.5 94t-137.5 267z" />
<glyph unicode="&#xb7;" horiz-adv-x="839" d="M266 688q0 64 44.5 109t109.5 45q64 0 108.5 -45.5t44.5 -108.5q0 -64 -44.5 -108.5t-108.5 -44.5q-66 0 -110 44t-44 109zM381 688q0 -15 12 -27t27 -12t27 12t12 27t-12 27t-27 12t-27 -12t-12 -27z" />
<glyph unicode="&#xb8;" horiz-adv-x="1308" d="M401 -436l60 121q6 -5 19 -13t57 -21t94 -13q53 0 76.5 17t23.5 58q0 77 -207 82l-24 31l73 203h172l-49 -125q85 -3 146 -51t61 -140q0 -101 -71 -163t-195 -62q-63 0 -122 19t-87 38zM461 -418q7 -5 21 -12.5t60 -20t95 -12.5q98 0 151.5 47t53.5 129q0 69 -62 111.5 t-151 48.5l45 123h-45l-60 -156q60 -2 111.5 -16t86 -43t34.5 -68q0 -64 -42.5 -99.5t-121.5 -35.5q-44 0 -84 11t-58 21l-18 11z" />
<glyph unicode="&#xb9;" horiz-adv-x="763" d="M201 1366l233 90h55v-600h-133v440l-120 -47zM262 1341l12 -34q18 6 71.5 28t57.5 23v-461h39v514z" />
<glyph unicode="&#xba;" horiz-adv-x="1073" d="M223 1161q0 129 91 216t223 87t222.5 -87t90.5 -216t-90.5 -219t-222.5 -90t-223 90t-91 219zM285 1163q0 -106 75 -181t183 -75q98 0 171.5 75.5t73.5 180.5q0 104 -73 176t-172 72q-109 0 -183.5 -71.5t-74.5 -176.5zM322 1163q0 87 65 149t156 62q84 0 146.5 -62 t62.5 -149q0 -90 -62.5 -154.5t-146.5 -64.5q-91 0 -156 64t-65 155zM385 1161q0 -69 44 -113t108 -44t107.5 44t43.5 113q0 67 -44 108.5t-107 41.5q-65 0 -108.5 -41.5t-43.5 -108.5z" />
<glyph unicode="&#xbb;" horiz-adv-x="1234" d="M254 18l223 336l-223 334h217l215 -334l-215 -336h-217zM389 94h45l174 260l-164 254h-47l164 -254q-34 -52 -86 -130t-86 -130zM608 18l223 336l-223 334h217l215 -334l-215 -336h-217zM743 94h45l175 260l-164 254h-47l163 -254q-34 -52 -86 -130t-86 -130z" />
<glyph unicode="&#xbc;" horiz-adv-x="1544" d="M178 66l1010 1458l129 -90l-1012 -1465zM207 1366l233 90h56v-600h-134v440l-120 -47zM262 86l33 -25l944 1356l-33 25zM268 1341l13 -34q18 6 71.5 28t57.5 23v-461h39v514zM870 123v98l131 389l121 -30l-102 -334h139v196h133v-196h60v-123h-60v-123h-133v123h-289z M911 166h295v-121h39v121h62v39h-62v188h-39v-188h-248l109 327l-39 13l-117 -357v-22z" />
<glyph unicode="&#xbd;" horiz-adv-x="1536" d="M178 66l1010 1458l129 -90l-1012 -1465zM207 1366l233 90h56v-600h-134v440l-120 -47zM262 86l33 -25l944 1356l-33 25zM268 1341l13 -34q18 6 71.5 28t57.5 23v-461h39v514zM905 561q7 5 21 13.5t63 22t105 13.5q104 0 162.5 -56.5t58.5 -139.5q0 -63 -19 -101t-65 -84 l-98 -104h186v-125h-410v84q111 98 183 184q77 92 77 131q0 32 -22.5 53t-71.5 21q-43 0 -76 -10.5t-45 -20.5l-12 -10zM956 45h299v39h-217l107 115q3 4 19.5 21.5t20.5 21.5t17 19.5t17 22.5t14 21.5t13 24.5t8 24.5t6.5 29t1.5 30.5q0 61 -45.5 106t-129.5 45 q-41 0 -73 -8.5t-44 -17.5l-12 -9l13 -32q40 28 116 28q63 0 99.5 -34t36.5 -78q0 -29 -7.5 -54.5t-26.5 -52t-31.5 -40.5t-41.5 -44l-160 -168v-10z" />
<glyph unicode="&#xbe;" horiz-adv-x="1566" d="M201 66l1009 1458l129 -90l-1011 -1465zM227 889l35 131q5 -5 15 -12t43.5 -19t70.5 -12t58.5 15t21.5 34q0 64 -88 64q-14 0 -30.5 -3t-26.5 -5l-9 -3l-24 97q80 98 121 149h-158v125h328v-102l-119 -154q145 -27 145 -170q0 -81 -56.5 -132.5t-160.5 -51.5 q-50 0 -91.5 12t-57.5 24zM274 913q33 -28 113 -28q83 0 129.5 38.5t46.5 100.5q0 40 -14.5 68t-40.5 43.5t-53 23t-62 10.5l156 203v33h-248v-39h197l-156 -205l10 -26q45 2 81.5 -5.5t64.5 -34.5t28 -71q0 -43 -36.5 -71.5t-100.5 -28.5q-26 0 -52 6.5t-39 13.5l-13 6z M285 86l32 -25l945 1356l-33 25zM893 123v98l131 389l121 -30l-103 -334h140v196h133v-196h59v-123h-59v-123h-133v123h-289zM934 166h295v-121h39v121h61v39h-61v188h-39v-188h-248l109 327l-39 13l-117 -357v-22z" />
<glyph unicode="&#xbf;" horiz-adv-x="1120" d="M160 352q0 69 22 127.5t56.5 100t77 79t84.5 73.5t76.5 74t56.5 89t22 111v45h207v-76q0 -70 -19 -129.5t-48.5 -101.5t-66 -79t-73 -69t-66 -64t-48.5 -72t-19 -85q0 -87 60.5 -131.5t170.5 -44.5q40 0 80.5 7t69 17.5t52 20.5t35.5 17l11 7l45 -205q-183 -94 -340 -94 q-108 0 -195 31.5t-140.5 85.5t-82 122t-28.5 144zM268 352q0 -126 84 -213.5t236 -87.5q89 0 139 14t127 52l-10 39q-54 -25 -79.5 -35t-72.5 -19.5t-104 -9.5q-132 0 -205.5 75.5t-73.5 184.5q0 56 20.5 105.5t53 86.5t72 72t79.5 70.5t72.5 74.5t53 91t20.5 113h-41 q-1 -57 -22 -106.5t-54 -87t-72.5 -72t-78.5 -70t-71.5 -74t-52.5 -90.5t-20 -113zM508 1331q0 65 45 109.5t109 44.5q66 0 109.5 -44.5t43.5 -109.5q0 -64 -44 -108.5t-109 -44.5q-64 0 -109 45t-45 108zM639 1333q0 -9 7 -15.5t16 -6.5t15.5 6.5t6.5 15.5t-6.5 16t-15.5 7 t-16 -7t-7 -16z" />
<glyph unicode="&#xc0;" horiz-adv-x="1650" d="M121 0l676 1452h57l676 -1452h-273l-127 287h-618l-125 -287h-266zM262 94h45l129 273h774l129 -273h43l-540 1151h-31zM453 403l366 775h12l363 -775h-741zM563 1688l74 200l450 -225l-40 -115zM602 489h438l-219 496zM649 1743l340 -129l15 37l-338 129z" />
<glyph unicode="&#xc1;" horiz-adv-x="1650" d="M121 0l676 1452h57l676 -1452h-273l-127 287h-618l-125 -287h-266zM262 94h45l129 273h774l129 -273h43l-540 1151h-31zM453 403l366 775h12l363 -775h-741zM563 1663l451 225l73 -200l-483 -140zM602 489h438l-219 496zM647 1651l15 -37l339 129l-16 37z" />
<glyph unicode="&#xc2;" horiz-adv-x="1650" d="M121 0l676 1452h57l676 -1452h-273l-127 287h-618l-125 -287h-266zM262 94h45l129 273h774l129 -273h43l-540 1151h-31zM453 403l366 775h12l363 -775h-741zM479 1636l303 363h92l295 -363h-219l-133 172l-131 -172h-207zM592 1683h55q26 34 87 105.5t87 105.5l168 -211 h53l-202 256h-37zM602 489h438l-219 496z" />
<glyph unicode="&#xc3;" horiz-adv-x="1650" d="M121 0l676 1452h57l676 -1452h-273l-127 287h-618l-125 -287h-266zM262 94h45l129 273h774l129 -273h43l-540 1151h-31zM377 1690q4 7 11 19t33 43t57.5 54.5t84.5 42.5t113 19q51 0 99 -18t78.5 -39.5t65.5 -39.5t62 -18q39 0 74 26.5t50 52.5l15 26l152 -89 q-3 -8 -10 -21.5t-33 -48.5t-57 -61.5t-83.5 -48.5t-111.5 -22q-48 0 -92 17.5t-71.5 38.5t-64.5 38.5t-73 17.5q-27 0 -53.5 -10.5t-44.5 -25.5t-33 -30t-22 -25l-7 -11zM453 403l366 775h12l363 -775h-741zM492 1710l32 -24q2 3 6 7.5t18.5 16.5t31 21t43 16.5t55.5 7.5 q47 0 119 -47q100 -66 182 -66q47 0 89 19t61 36.5t32 35.5l-33 24q-10 -15 -25 -29t-49.5 -29.5t-74.5 -15.5q-48 0 -84.5 15t-77.5 43q-29 19 -45.5 28t-42.5 18t-51 9q-33 0 -64.5 -9t-52.5 -21.5t-37.5 -25t-23.5 -21.5zM602 489h438l-219 496z" />
<glyph unicode="&#xc4;" horiz-adv-x="1650" d="M121 0l676 1452h57l676 -1452h-273l-127 287h-618l-125 -287h-266zM262 94h45l129 273h774l129 -273h43l-540 1151h-31zM453 403l366 775h12l363 -775h-741zM502 1706q0 54 38 91.5t91 37.5q54 0 91.5 -37.5t37.5 -91.5q0 -53 -37.5 -91t-91.5 -38q-53 0 -91 38.5 t-38 90.5zM592 1706q0 -15 12 -27t27 -12t27 12t12 27t-12 27t-27 12t-27 -12t-12 -27zM602 489h438l-219 496zM893 1706q0 54 38 91.5t91 37.5q54 0 91.5 -37.5t37.5 -91.5q0 -53 -37.5 -91t-91.5 -38q-52 0 -90.5 38.5t-38.5 90.5zM983 1706q0 -15 12 -27t27 -12t27 12 t12 27t-12 27t-27 12t-27 -12t-12 -27z" />
<glyph unicode="&#xc5;" horiz-adv-x="1650" d="M121 0l676 1452h57l676 -1452h-273l-127 287h-618l-125 -287h-266zM262 94h45l129 273h774l129 -273h43l-540 1151h-31zM453 403l366 775h12l363 -775h-741zM584 1796q0 97 67.5 165.5t173.5 68.5t174 -69t68 -165q0 -98 -67.5 -165.5t-174.5 -67.5q-106 0 -173.5 67.5 t-67.5 165.5zM602 489h438l-219 496zM631 1798q0 -85 54 -142t138 -57q85 0 141 57t56 142t-56 142t-141 57q-84 0 -138 -57t-54 -142zM672 1798q0 67 43 114.5t108 47.5t110.5 -47.5t45.5 -114.5t-45.5 -114.5t-110.5 -47.5t-108 47.5t-43 114.5zM723 1796 q0 -52 29.5 -84.5t72.5 -32.5q44 0 73.5 32.5t29.5 84.5q0 50 -30 83.5t-73 33.5t-72.5 -32.5t-29.5 -84.5z" />
<glyph unicode="&#xc6;" horiz-adv-x="2072" d="M104 0l760 1440h967v-234h-682v-403h618v-225h-618v-345h682v-233h-936v301h-369l-155 -301h-267zM256 92h49l150 285h542v-285h752v41h-711v529h645v40h-645v601h711v40h-829zM477 418l467 885h53v-885h-520zM627 502h268v485z" />
<glyph unicode="&#xc7;" horiz-adv-x="1675" d="M203 721q0 153 62 291t166 237t247.5 157t300.5 58q88 0 173 -12t143 -29t103 -34t67 -29l22 -12l-88 -218q-21 11 -58 26.5t-136.5 42t-182.5 26.5q-250 0 -397.5 -141.5t-147.5 -366.5q0 -217 148 -359.5t372 -142.5q108 0 212.5 24.5t154.5 48.5l51 25l78 -217 q-8 -5 -22 -13t-62 -29t-100 -37t-132.5 -29t-162.5 -13h-13l-28 -71q85 -3 146 -51t61 -140q0 -101 -71.5 -163t-195.5 -62q-63 0 -121.5 19t-85.5 38l-28 19l59 121q6 -5 19 -13t57 -21t94 -13q53 0 77 17t24 58q0 77 -207 82l-25 31l60 166q-289 49 -461 248.5 t-172 480.5zM309 717q0 -266 174.5 -445t450.5 -198l-90 -234q60 -2 111 -16t85.5 -43t34.5 -68q0 -64 -42.5 -99.5t-121.5 -35.5q-44 0 -83.5 11t-57.5 21l-18 11l-17 -39q7 -5 21 -12.5t60 -20t95 -12.5q98 0 151.5 47t53.5 129q0 69 -62 111.5t-151 48.5l76 199h14 q70 0 135.5 7.5t109.5 18t77.5 21.5t48.5 19l16 7l-12 41q-6 -3 -16.5 -8t-47 -17.5t-77 -22t-104 -17.5t-130.5 -8q-184 0 -331 77.5t-229.5 215.5t-82.5 311q0 271 176 440.5t471 169.5q81 0 168 -18t134 -36l47 -18l16 37q-20 9 -54 21.5t-130.5 33.5t-180.5 21 q-314 0 -501 -181t-187 -470z" />
<glyph unicode="&#xc8;" horiz-adv-x="1476" d="M299 0v1440h936v-234h-682v-403h618v-225h-618v-345h682v-233h-936zM401 92h752v41h-711v529h645v40h-645v601h711v40h-752v-1251zM481 1688l74 200l451 -225l-41 -115zM567 1743l340 -129l15 37l-338 129z" />
<glyph unicode="&#xc9;" horiz-adv-x="1476" d="M299 0v1440h936v-234h-682v-403h618v-225h-618v-345h682v-233h-936zM401 92h752v41h-711v529h645v40h-645v601h711v40h-752v-1251zM481 1663l451 225l74 -200l-484 -140zM565 1651l15 -37l340 129l-17 37z" />
<glyph unicode="&#xca;" horiz-adv-x="1476" d="M299 0v1440h936v-234h-682v-403h618v-225h-618v-345h682v-233h-936zM399 1636l303 363h93l295 -363h-220l-133 172l-131 -172h-207zM401 92h752v41h-711v529h645v40h-645v601h711v40h-752v-1251zM512 1683h55q26 34 86.5 105.5t87.5 105.5l168 -211h54l-203 256h-37z" />
<glyph unicode="&#xcb;" horiz-adv-x="1476" d="M299 0v1440h936v-234h-682v-403h618v-225h-618v-345h682v-233h-936zM401 92h752v41h-711v529h645v40h-645v601h711v40h-752v-1251zM420 1706q0 54 38 91.5t91 37.5q54 0 91.5 -37.5t37.5 -91.5q0 -53 -37.5 -91t-91.5 -38q-53 0 -91 38.5t-38 90.5zM510 1706 q0 -15 12 -27t27 -12t27 12t12 27t-12 27t-27 12t-27 -12t-12 -27zM811 1706q0 54 38 91.5t91 37.5q54 0 91.5 -37.5t37.5 -91.5q0 -53 -37.5 -91t-91.5 -38q-52 0 -90.5 38.5t-38.5 90.5zM901 1706q0 -15 12 -27t27 -12t27 12t12 27t-12 27t-27 12t-27 -12t-12 -27z" />
<glyph unicode="&#xcc;" horiz-adv-x="851" d="M166 1688l74 200l450 -225l-41 -115zM252 1743l340 -129l14 37l-338 129zM299 0v1440h254v-1440h-254zM406 94h40v1249h-40v-1249z" />
<glyph unicode="&#xcd;" horiz-adv-x="851" d="M166 1663l450 225l74 -200l-483 -140zM250 1651l14 -37l340 129l-16 37zM299 0v1440h254v-1440h-254zM406 94h40v1249h-40v-1249z" />
<glyph unicode="&#xce;" horiz-adv-x="851" d="M84 1636l303 363h92l295 -363h-219l-133 172l-131 -172h-207zM197 1683h55q26 34 86.5 105.5t87.5 105.5l168 -211h53l-203 256h-36zM299 0v1440h254v-1440h-254zM406 94h40v1249h-40v-1249z" />
<glyph unicode="&#xcf;" horiz-adv-x="851" d="M104 1706q0 54 38 91.5t91 37.5q54 0 91.5 -37.5t37.5 -91.5q0 -53 -37.5 -91t-91.5 -38q-53 0 -91 38.5t-38 90.5zM195 1706q0 -15 11.5 -27t26.5 -12t27 12t12 27t-12 27t-27 12t-26.5 -12t-11.5 -27zM299 0v1440h254v-1440h-254zM406 94h40v1249h-40v-1249zM496 1706 q0 54 38 91.5t91 37.5q54 0 91.5 -37.5t37.5 -91.5q0 -53 -37.5 -91t-91.5 -38q-53 0 -91 38.5t-38 90.5zM586 1706q0 -15 12 -27t27 -12t27 12t12 27t-12 27t-27 12t-27 -12t-12 -27z" />
<glyph unicode="&#xd0;" horiz-adv-x="1828" d="M199 612v179h110v649h543q220 0 396 -92t275 -256.5t99 -370.5q0 -152 -59 -286t-160.5 -229.5t-245 -150.5t-305.5 -55h-543v612h-110zM293 684h121v-592h413q191 0 346.5 79.5t245.5 223t90 322.5q0 274 -192 452.5t-490 178.5h-413v-623h-121v-41zM455 133v551h157v41 h-157v582h372q280 0 460.5 -167t180.5 -423q0 -167 -85 -301t-231.5 -208.5t-324.5 -74.5h-372zM565 233h289q211 0 353.5 137.5t142.5 346.5q0 213 -140 351t-356 138h-289v-415h142v-179h-142v-379z" />
<glyph unicode="&#xd1;" horiz-adv-x="1822" d="M299 0v1448h80l891 -928v920h254v-1450h-68l-903 903v-893h-254zM406 94h40v1053l981 -979v1175h-41v-1077l-980 979v-1151zM465 1690q4 7 11 19t33 43t57.5 54.5t84.5 42.5t113 19q51 0 99 -18t78.5 -39.5t65.5 -39.5t62 -18q39 0 74 26.5t50 52.5l15 26l152 -89 q-3 -8 -10 -21.5t-33 -48.5t-57 -61.5t-83.5 -48.5t-111.5 -22q-48 0 -92 17.5t-71.5 38.5t-64.5 38.5t-73 17.5q-27 0 -53.5 -10.5t-44.5 -25.5t-33 -30t-22 -25l-7 -11zM580 1710l32 -24q2 3 6 7.5t18.5 16.5t31 21t43 16.5t55.5 7.5q47 0 119 -47q100 -66 182 -66 q47 0 89 19t61 36.5t32 35.5l-32 24q-10 -15 -25.5 -29t-50 -29.5t-74.5 -15.5q-48 0 -84.5 15t-77.5 43q-29 19 -45.5 28t-42.5 18t-51 9q-33 0 -64.5 -9t-52.5 -21.5t-37.5 -25t-23.5 -21.5z" />
<glyph unicode="&#xd2;" horiz-adv-x="1947" d="M205 721q0 153 59.5 291t162 237t245 157t301.5 58q220 0 396 -95.5t275 -265.5t99 -382q0 -157 -59 -295t-160.5 -236.5t-245 -155.5t-305.5 -57q-163 0 -305.5 56.5t-244 155t-160 237t-58.5 295.5zM319 717q0 -183 89 -334t239.5 -236.5t327.5 -85.5q178 0 327.5 84 t238.5 235.5t89 336.5q0 187 -85.5 338t-235.5 235t-334 84q-137 0 -258 -49.5t-208.5 -135.5t-138.5 -209t-51 -263zM360 717q0 175 81.5 316.5t222.5 220.5t311 79q172 0 312.5 -79t221 -220.5t80.5 -316.5q0 -130 -48.5 -245t-131.5 -195.5t-196 -127.5t-238 -47 q-167 0 -308 80.5t-224 222t-83 312.5zM479 717q0 -142 65.5 -260.5t179.5 -187t251 -68.5q210 0 352.5 148.5t142.5 367.5q0 146 -63 264.5t-176.5 186t-255.5 67.5q-213 0 -354.5 -148t-141.5 -370zM715 1688l73 200l451 -225l-41 -115zM801 1743l340 -129l14 37l-338 129 z" />
<glyph unicode="&#xd3;" horiz-adv-x="1947" d="M205 721q0 153 59.5 291t162 237t245 157t301.5 58q220 0 396 -95.5t275 -265.5t99 -382q0 -157 -59 -295t-160.5 -236.5t-245 -155.5t-305.5 -57q-163 0 -305.5 56.5t-244 155t-160 237t-58.5 295.5zM319 717q0 -183 89 -334t239.5 -236.5t327.5 -85.5q178 0 327.5 84 t238.5 235.5t89 336.5q0 187 -85.5 338t-235.5 235t-334 84q-137 0 -258 -49.5t-208.5 -135.5t-138.5 -209t-51 -263zM360 717q0 175 81.5 316.5t222.5 220.5t311 79q172 0 312.5 -79t221 -220.5t80.5 -316.5q0 -130 -48.5 -245t-131.5 -195.5t-196 -127.5t-238 -47 q-167 0 -308 80.5t-224 222t-83 312.5zM479 717q0 -142 65.5 -260.5t179.5 -187t251 -68.5q210 0 352.5 148.5t142.5 367.5q0 146 -63 264.5t-176.5 186t-255.5 67.5q-213 0 -354.5 -148t-141.5 -370zM715 1663l450 225l74 -200l-483 -140zM799 1651l14 -37l340 129l-16 37z " />
<glyph unicode="&#xd4;" horiz-adv-x="1947" d="M205 721q0 153 59.5 291t162 237t245 157t301.5 58q220 0 396 -95.5t275 -265.5t99 -382q0 -157 -59 -295t-160.5 -236.5t-245 -155.5t-305.5 -57q-163 0 -305.5 56.5t-244 155t-160 237t-58.5 295.5zM319 717q0 -183 89 -334t239.5 -236.5t327.5 -85.5q178 0 327.5 84 t238.5 235.5t89 336.5q0 187 -85.5 338t-235.5 235t-334 84q-137 0 -258 -49.5t-208.5 -135.5t-138.5 -209t-51 -263zM360 717q0 175 81.5 316.5t222.5 220.5t311 79q172 0 312.5 -79t221 -220.5t80.5 -316.5q0 -130 -48.5 -245t-131.5 -195.5t-196 -127.5t-238 -47 q-167 0 -308 80.5t-224 222t-83 312.5zM479 717q0 -142 65.5 -260.5t179.5 -187t251 -68.5q210 0 352.5 148.5t142.5 367.5q0 146 -63 264.5t-176.5 186t-255.5 67.5q-213 0 -354.5 -148t-141.5 -370zM631 1636l303 363h92l295 -363h-219l-133 172l-131 -172h-207zM743 1683 h56q26 34 86.5 105.5t87.5 105.5l168 -211h53l-203 256h-37z" />
<glyph unicode="&#xd5;" horiz-adv-x="1947" d="M205 721q0 153 59.5 291t162 237t245 157t301.5 58q220 0 396 -95.5t275 -265.5t99 -382q0 -157 -59 -295t-160.5 -236.5t-245 -155.5t-305.5 -57q-163 0 -305.5 56.5t-244 155t-160 237t-58.5 295.5zM319 717q0 -183 89 -334t239.5 -236.5t327.5 -85.5q178 0 327.5 84 t238.5 235.5t89 336.5q0 187 -85.5 338t-235.5 235t-334 84q-137 0 -258 -49.5t-208.5 -135.5t-138.5 -209t-51 -263zM360 717q0 175 81.5 316.5t222.5 220.5t311 79q172 0 312.5 -79t221 -220.5t80.5 -316.5q0 -130 -48.5 -245t-131.5 -195.5t-196 -127.5t-238 -47 q-167 0 -308 80.5t-224 222t-83 312.5zM479 717q0 -142 65.5 -260.5t179.5 -187t251 -68.5q210 0 352.5 148.5t142.5 367.5q0 146 -63 264.5t-176.5 186t-255.5 67.5q-213 0 -354.5 -148t-141.5 -370zM528 1690q4 7 11 19t33 43t57.5 54.5t84.5 42.5t113 19q51 0 99 -18 t79 -39.5t66 -39.5t62 -18q39 0 74 26.5t50 52.5l15 26l151 -89q-3 -8 -10 -21.5t-33 -48.5t-57 -61.5t-83.5 -48.5t-111.5 -22q-48 0 -92 17.5t-71.5 38.5t-64.5 38.5t-73 17.5q-27 0 -53 -10.5t-44.5 -25.5t-33 -30t-21.5 -25l-7 -11zM643 1710l33 -24q2 3 6 7.5 t18.5 16.5t30.5 21t42.5 16.5t55.5 7.5q47 0 119 -47q100 -66 182 -66q68 0 114.5 30t68.5 61l-33 24q-10 -15 -25.5 -29t-50 -29.5t-74.5 -15.5q-34 0 -65.5 9.5t-50 20t-45.5 28.5q-28 18 -45.5 28t-43.5 18.5t-51 8.5q-33 0 -64.5 -9t-52.5 -21.5t-37.5 -25t-24.5 -21.5z " />
<glyph unicode="&#xd6;" horiz-adv-x="1947" d="M205 721q0 153 59.5 291t162 237t245 157t301.5 58q220 0 396 -95.5t275 -265.5t99 -382q0 -157 -59 -295t-160.5 -236.5t-245 -155.5t-305.5 -57q-163 0 -305.5 56.5t-244 155t-160 237t-58.5 295.5zM319 717q0 -183 89 -334t239.5 -236.5t327.5 -85.5q178 0 327.5 84 t238.5 235.5t89 336.5q0 187 -85.5 338t-235.5 235t-334 84q-137 0 -258 -49.5t-208.5 -135.5t-138.5 -209t-51 -263zM360 717q0 175 81.5 316.5t222.5 220.5t311 79q172 0 312.5 -79t221 -220.5t80.5 -316.5q0 -130 -48.5 -245t-131.5 -195.5t-196 -127.5t-238 -47 q-167 0 -308 80.5t-224 222t-83 312.5zM479 717q0 -142 65.5 -260.5t179.5 -187t251 -68.5q210 0 352.5 148.5t142.5 367.5q0 146 -63 264.5t-176.5 186t-255.5 67.5q-213 0 -354.5 -148t-141.5 -370zM653 1706q0 54 38 91.5t91 37.5q54 0 91.5 -37.5t37.5 -91.5 q0 -53 -37.5 -91t-91.5 -38q-52 0 -90.5 38.5t-38.5 90.5zM743 1706q0 -15 12 -27t27 -12t27 12t12 27t-12 27t-27 12t-27 -12t-12 -27zM1044 1706q0 54 38.5 91.5t91.5 37.5q54 0 91.5 -37.5t37.5 -91.5q0 -53 -37.5 -91t-91.5 -38q-53 0 -91.5 38.5t-38.5 90.5zM1135 1706 q0 -15 12 -27t27 -12t26.5 12t11.5 27t-11.5 27t-26.5 12t-27 -12t-12 -27z" />
<glyph unicode="&#xd7;" horiz-adv-x="1171" d="M252 375l211 215l-211 215l123 125l209 -215l211 215l125 -125l-213 -215l213 -215l-125 -123l-211 213l-209 -213zM348 385l29 -31l205 203l206 -203l29 31l-205 203l205 203l-29 30l-206 -205l-205 205l-29 -30l205 -203z" />
<glyph unicode="&#xd8;" horiz-adv-x="1947" d="M205 721q0 153 59.5 291t162 237t245 157t301.5 58q198 0 364 -80l70 91l139 -105l-61 -80q123 -101 190.5 -247.5t67.5 -321.5q0 -157 -59 -295t-160.5 -236.5t-245 -155.5t-305.5 -57q-221 0 -404 103l-90 -121l-139 104l90 119q-107 101 -166 239.5t-59 299.5z M319 717q0 -148 60 -276t166 -220l-92 -123l32 -24l90 121q177 -134 400 -134q178 0 327.5 84t238.5 235.5t89 336.5q0 167 -69.5 305.5t-192.5 228.5l70 95l-33 24l-72 -96q-162 100 -358 100q-137 0 -258 -49.5t-208.5 -135.5t-138.5 -209t-51 -263zM360 717 q0 175 81.5 316.5t222.5 220.5t311 79q184 0 334 -92l-740 -987q-99 85 -154 204.5t-55 258.5zM479 717q0 -185 109 -326l602 797q-96 47 -215 47q-213 0 -354.5 -148t-141.5 -370zM600 227l741 990q116 -83 182 -213t66 -287q0 -130 -48.5 -245t-131.5 -195.5t-196 -127.5 t-238 -47q-216 0 -375 125zM717 274q115 -73 258 -73q210 0 352.5 148.5t142.5 367.5q0 223 -139 368z" />
<glyph unicode="&#xd9;" d="M283 596v844h254v-844q0 -389 342 -389q350 0 350 391v842h254v-844q0 -158 -43.5 -278t-124 -195t-190 -112.5t-246.5 -37.5q-280 0 -438 155t-158 468zM387 580q0 -253 130.5 -383.5t361.5 -130.5q228 0 358.5 132.5t130.5 389.5v760h-41v-760q0 -237 -120 -359.5 t-328 -122.5q-211 0 -331 121t-120 353v761h-41v-761zM621 1688l73 200l451 -225l-41 -115zM707 1743l340 -129l14 37l-338 129z" />
<glyph unicode="&#xda;" d="M283 596v844h254v-844q0 -389 342 -389q350 0 350 391v842h254v-844q0 -158 -43.5 -278t-124 -195t-190 -112.5t-246.5 -37.5q-280 0 -438 155t-158 468zM387 580q0 -253 130.5 -383.5t361.5 -130.5q228 0 358.5 132.5t130.5 389.5v760h-41v-760q0 -237 -120 -359.5 t-328 -122.5q-211 0 -331 121t-120 353v761h-41v-761zM621 1663l450 225l74 -200l-483 -140zM705 1651l14 -37l340 129l-17 37z" />
<glyph unicode="&#xdb;" d="M283 596v844h254v-844q0 -389 342 -389q350 0 350 391v842h254v-844q0 -158 -43.5 -278t-124 -195t-190 -112.5t-246.5 -37.5q-280 0 -438 155t-158 468zM387 580q0 -253 130.5 -383.5t361.5 -130.5q228 0 358.5 132.5t130.5 389.5v760h-41v-760q0 -237 -120 -359.5 t-328 -122.5q-211 0 -331 121t-120 353v761h-41v-761zM537 1636l303 363h92l295 -363h-219l-134 172l-131 -172h-206zM649 1683h56q27 34 87.5 105.5t86.5 105.5l168 -211h53l-203 256h-37z" />
<glyph unicode="&#xdc;" d="M283 596v844h254v-844q0 -389 342 -389q350 0 350 391v842h254v-844q0 -158 -43.5 -278t-124 -195t-190 -112.5t-246.5 -37.5q-280 0 -438 155t-158 468zM387 580q0 -253 130.5 -383.5t361.5 -130.5q228 0 358.5 132.5t130.5 389.5v760h-41v-760q0 -237 -120 -359.5 t-328 -122.5q-211 0 -331 121t-120 353v761h-41v-761zM559 1706q0 54 38 91.5t91 37.5q54 0 91.5 -37.5t37.5 -91.5q0 -53 -37.5 -91t-91.5 -38q-52 0 -90.5 38.5t-38.5 90.5zM649 1706q0 -15 12 -27t27 -12t27 12t12 27t-12 27t-27 12t-27 -12t-12 -27zM950 1706 q0 54 38 91.5t91 37.5q54 0 91.5 -37.5t37.5 -91.5q0 -53 -37.5 -91t-91.5 -38q-53 0 -91 38.5t-38 90.5zM1040 1706q0 -15 12 -27t27 -12t27 12t12 27t-12 27t-27 12t-27 -12t-12 -27z" />
<glyph unicode="&#xdd;" horiz-adv-x="1536" d="M111 1440h292l367 -637l367 637h286l-528 -871v-569h-256v571zM293 1343l455 -772v-477h40v477l461 772h-47l-434 -725l-430 725h-45zM506 1663l450 225l74 -200l-483 -140zM590 1651l14 -37l340 129l-16 37z" />
<glyph unicode="&#xde;" horiz-adv-x="1488" d="M299 0v1440h254v-199h186q279 0 427.5 -139.5t148.5 -372.5q0 -236 -155.5 -373t-469.5 -137h-137v-219h-254zM399 94h41v215h262q253 0 377.5 112t124.5 308q0 186 -117.5 300t-334.5 114h-312v203h-41v-1252zM440 350v752h312q196 0 303.5 -103.5t107.5 -269.5 q0 -177 -114.5 -278t-346.5 -101h-262zM553 444h168q168 0 243.5 78t75.5 207q0 279 -319 279h-168v-564z" />
<glyph unicode="&#xdf;" horiz-adv-x="1507" d="M287 0v1044q0 207 128 313.5t345 106.5q211 0 337 -103t126 -300q0 -75 -25 -136.5t-61 -100.5t-72 -70t-61 -61.5t-25 -59.5q0 -26 19.5 -53.5t50 -55.5t68 -61t75 -77.5t68 -97t50 -127.5t19.5 -161h-282q0 64 -18.5 118.5t-48 94t-65.5 75.5t-72 71.5t-65.5 73.5 t-48 89t-18.5 111q0 44 13 78t34 56t46 41.5t50.5 40.5t46.5 46t34 65.5t13 92.5q0 80 -61.5 126t-141.5 46q-99 0 -151.5 -59.5t-52.5 -168.5v-997h-254zM393 997l2 -903h41l-2 903q0 158 78 244t229 86q83 0 155.5 -29t121.5 -93t49 -152q0 -59 -24.5 -109t-59.5 -85 t-70 -67.5t-59.5 -73t-24.5 -85.5q0 -49 17 -91.5t44.5 -75.5t60.5 -64t66.5 -63.5t62 -66.5t47 -80t20.5 -98h41q0 74 -33 137t-79.5 108t-93 87.5t-79.5 95t-33 111.5q0 39 24.5 76t59.5 69t70 68t59.5 89.5t24.5 117.5q0 77 -31.5 138.5t-84.5 99t-117.5 57.5t-133.5 20 q-172 0 -260 -97t-88 -274z" />
<glyph unicode="&#xe0;" d="M283 0v821q0 325 154 484t442 159q289 0 446.5 -159.5t157.5 -483.5v-821h-256v344h-688v-344h-256zM391 94h41v332h899v-332h41v760q0 257 -130.5 389.5t-358.5 132.5q-231 0 -361.5 -130.5t-130.5 -383.5v-768zM432 467v395q0 232 119.5 352.5t331.5 120.5 q208 0 328 -122t120 -359v-387h-899zM516 1688l74 200l450 -225l-41 -115zM539 545q127 2 688 2v272q0 412 -344 412q-159 0 -251.5 -100.5t-92.5 -309.5v-276zM602 1743l340 -129l14 37l-338 129z" />
<glyph unicode="&#xe1;" d="M283 0v821q0 325 154 484t442 159q289 0 446.5 -159.5t157.5 -483.5v-821h-256v344h-688v-344h-256zM391 94h41v332h899v-332h41v760q0 257 -130.5 389.5t-358.5 132.5q-231 0 -361.5 -130.5t-130.5 -383.5v-768zM432 467v395q0 232 119.5 352.5t331.5 120.5 q208 0 328 -122t120 -359v-387h-899zM539 545q127 2 688 2v272q0 412 -344 412q-159 0 -251.5 -100.5t-92.5 -309.5v-276zM633 1663l450 225l74 -200l-483 -140zM717 1651l14 -37l340 129l-16 37z" />
<glyph unicode="&#xe2;" d="M283 0v821q0 325 154 484t442 159q289 0 446.5 -159.5t157.5 -483.5v-821h-256v344h-688v-344h-256zM391 94h41v332h899v-332h41v760q0 257 -130.5 389.5t-358.5 132.5q-231 0 -361.5 -130.5t-130.5 -383.5v-768zM432 467v395q0 232 119.5 352.5t331.5 120.5 q208 0 328 -122t120 -359v-387h-899zM539 545q127 2 688 2v272q0 412 -344 412q-159 0 -251.5 -100.5t-92.5 -309.5v-276zM547 1636l303 363h92l295 -363h-219l-133 172l-131 -172h-207zM659 1683h56q27 34 87.5 105.5t86.5 105.5l168 -211h53l-203 256h-37z" />
<glyph unicode="&#xe3;" d="M283 0v821q0 325 154 484t442 159q289 0 446.5 -159.5t157.5 -483.5v-821h-256v344h-688v-344h-256zM391 94h41v332h899v-332h41v760q0 257 -130.5 389.5t-358.5 132.5q-231 0 -361.5 -130.5t-130.5 -383.5v-768zM432 467v395q0 232 119.5 352.5t331.5 120.5 q208 0 328 -122t120 -359v-387h-899zM432 1690q4 7 11 19t33 43t57.5 54.5t84.5 42.5t113 19q51 0 99 -18t78.5 -39.5t65.5 -39.5t62 -18q39 0 74 26.5t50 52.5l16 26l151 -89q-3 -8 -10 -21.5t-33 -48.5t-57 -61.5t-83.5 -48.5t-111.5 -22q-48 0 -92 17.5t-71.5 38.5 t-64.5 38.5t-73 17.5q-27 0 -53.5 -10.5t-44.5 -25.5t-33 -30t-22 -25l-7 -11zM539 545q127 2 688 2v272q0 412 -344 412q-159 0 -251.5 -100.5t-92.5 -309.5v-276zM547 1710l33 -24q2 3 6 7.5t18.5 16.5t30.5 21t42.5 16.5t55.5 7.5q47 0 119 -47q100 -66 182 -66 q68 0 114.5 30t68.5 61l-33 24q-10 -15 -25.5 -29t-50 -29.5t-74.5 -15.5q-48 0 -84.5 15t-77.5 43q-29 19 -45.5 28t-42.5 18t-51 9q-33 0 -64.5 -9t-52.5 -21.5t-37.5 -25t-24.5 -21.5z" />
<glyph unicode="&#xe4;" d="M283 0v821q0 325 154 484t442 159q289 0 446.5 -159.5t157.5 -483.5v-821h-256v344h-688v-344h-256zM391 94h41v332h899v-332h41v760q0 257 -130.5 389.5t-358.5 132.5q-231 0 -361.5 -130.5t-130.5 -383.5v-768zM432 467v395q0 232 119.5 352.5t331.5 120.5 q208 0 328 -122t120 -359v-387h-899zM539 545q127 2 688 2v272q0 412 -344 412q-159 0 -251.5 -100.5t-92.5 -309.5v-276zM567 1706q0 54 38 91.5t91 37.5q54 0 91.5 -37.5t37.5 -91.5q0 -53 -37.5 -91t-91.5 -38q-52 0 -90.5 38.5t-38.5 90.5zM657 1706q0 -15 12 -27 t27 -12t27 12t12 27t-12 27t-27 12t-27 -12t-12 -27zM958 1706q0 54 38 91.5t91 37.5q54 0 92 -37.5t38 -91.5q0 -53 -38 -91t-92 -38q-53 0 -91 38.5t-38 90.5zM1049 1706q0 -15 11.5 -27t26.5 -12t27 12t12 27t-12 27t-27 12t-26.5 -12t-11.5 -27z" />
<glyph unicode="&#xe5;" d="M283 0v821q0 325 154 484t442 159q289 0 446.5 -159.5t157.5 -483.5v-821h-256v344h-688v-344h-256zM391 94h41v332h899v-332h41v760q0 257 -130.5 389.5t-358.5 132.5q-231 0 -361.5 -130.5t-130.5 -383.5v-768zM432 467v395q0 232 119.5 352.5t331.5 120.5 q208 0 328 -122t120 -359v-387h-899zM539 545q127 2 688 2v272q0 412 -344 412q-159 0 -251.5 -100.5t-92.5 -309.5v-276zM645 1796q0 96 68 165t174 69t173.5 -68.5t67.5 -165.5q0 -98 -67.5 -165.5t-173.5 -67.5q-107 0 -174.5 67.5t-67.5 165.5zM692 1798 q0 -85 54.5 -142t138.5 -57t140 57t56 142t-56 142t-140 57t-138.5 -57t-54.5 -142zM733 1798q0 67 43.5 114.5t108.5 47.5t110 -47.5t45 -114.5t-45 -114.5t-110 -47.5t-108.5 47.5t-43.5 114.5zM784 1796q0 -52 29.5 -84.5t73.5 -32.5q43 0 72.5 32.5t29.5 84.5 q0 51 -29.5 84t-72.5 33q-44 0 -73.5 -32.5t-29.5 -84.5z" />
<glyph unicode="&#xe6;" horiz-adv-x="2115" d="M281 0v795q0 325 170.5 485t486.5 160h936v-234h-682v-403h618v-225h-618v-345h682v-233h-936v344h-401v-344h-256zM393 94h41v303h615v-303h751v41h-710v529h645v41h-645v600h710v41h-915q-232 0 -362 -139.5t-130 -413.5v-699zM434 438v355q0 252 119.5 382t331.5 130 h164v-867h-615zM537 545h401v661q-186 -2 -293.5 -102.5t-107.5 -308.5v-250z" />
<glyph unicode="&#xe7;" horiz-adv-x="1675" d="M203 721q0 153 62 291t166 237t247.5 157t300.5 58q88 0 173 -12t143 -29t103 -34t67 -29l22 -12l-88 -218q-21 11 -58 26.5t-136.5 42t-182.5 26.5q-250 0 -397.5 -141.5t-147.5 -366.5q0 -217 148 -359.5t372 -142.5q108 0 212.5 24.5t154.5 48.5l51 25l78 -217 q-8 -5 -22 -13t-62 -29t-100 -37t-132.5 -29t-162.5 -13h-13l-28 -71q85 -3 146 -51t61 -140q0 -101 -71.5 -163t-195.5 -62q-63 0 -121.5 19t-85.5 38l-28 19l59 121q6 -5 19 -13t57 -21t94 -13q53 0 77 17t24 58q0 77 -207 82l-25 31l60 166q-289 49 -461 248.5 t-172 480.5zM309 717q0 -266 174.5 -445t450.5 -198l-90 -234q60 -2 111 -16t85.5 -43t34.5 -68q0 -64 -42.5 -99.5t-121.5 -35.5q-44 0 -83.5 11t-57.5 21l-18 11l-17 -39q7 -5 21 -12.5t60 -20t95 -12.5q98 0 151.5 47t53.5 129q0 69 -62 111.5t-151 48.5l76 199h14 q70 0 135.5 7.5t109.5 18t77.5 21.5t48.5 19l16 7l-12 41q-6 -3 -16.5 -8t-47 -17.5t-77 -22t-104 -17.5t-130.5 -8q-184 0 -331 77.5t-229.5 215.5t-82.5 311q0 271 176 440.5t471 169.5q81 0 168 -18t134 -36l47 -18l16 37q-20 9 -54 21.5t-130.5 33.5t-180.5 21 q-314 0 -501 -181t-187 -470z" />
<glyph unicode="&#xe8;" horiz-adv-x="1476" d="M299 0v1440h936v-234h-682v-403h618v-225h-618v-345h682v-233h-936zM401 92h752v41h-711v529h645v40h-645v601h711v40h-752v-1251zM481 1688l74 200l451 -225l-41 -115zM567 1743l340 -129l15 37l-338 129z" />
<glyph unicode="&#xe9;" horiz-adv-x="1476" d="M299 0v1440h936v-234h-682v-403h618v-225h-618v-345h682v-233h-936zM401 92h752v41h-711v529h645v40h-645v601h711v40h-752v-1251zM481 1663l451 225l74 -200l-484 -140zM565 1651l15 -37l340 129l-17 37z" />
<glyph unicode="&#xea;" horiz-adv-x="1476" d="M299 0v1440h936v-234h-682v-403h618v-225h-618v-345h682v-233h-936zM399 1636l303 363h93l295 -363h-220l-133 172l-131 -172h-207zM401 92h752v41h-711v529h645v40h-645v601h711v40h-752v-1251zM512 1683h55q26 34 86.5 105.5t87.5 105.5l168 -211h54l-203 256h-37z" />
<glyph unicode="&#xeb;" horiz-adv-x="1476" d="M299 0v1440h936v-234h-682v-403h618v-225h-618v-345h682v-233h-936zM401 92h752v41h-711v529h645v40h-645v601h711v40h-752v-1251zM420 1706q0 54 38 91.5t91 37.5q54 0 91.5 -37.5t37.5 -91.5q0 -53 -37.5 -91t-91.5 -38q-53 0 -91 38.5t-38 90.5zM510 1706 q0 -15 12 -27t27 -12t27 12t12 27t-12 27t-27 12t-27 -12t-12 -27zM811 1706q0 54 38 91.5t91 37.5q54 0 91.5 -37.5t37.5 -91.5q0 -53 -37.5 -91t-91.5 -38q-52 0 -90.5 38.5t-38.5 90.5zM901 1706q0 -15 12 -27t27 -12t27 12t12 27t-12 27t-27 12t-27 -12t-12 -27z" />
<glyph unicode="&#xec;" horiz-adv-x="851" d="M166 1688l74 200l450 -225l-41 -115zM252 1743l340 -129l14 37l-338 129zM299 0v1440h254v-1440h-254zM406 94h40v1249h-40v-1249z" />
<glyph unicode="&#xed;" horiz-adv-x="851" d="M166 1663l450 225l74 -200l-483 -140zM250 1651l14 -37l340 129l-16 37zM299 0v1440h254v-1440h-254zM406 94h40v1249h-40v-1249z" />
<glyph unicode="&#xee;" horiz-adv-x="851" d="M84 1636l303 363h92l295 -363h-219l-133 172l-131 -172h-207zM197 1683h55q26 34 86.5 105.5t87.5 105.5l168 -211h53l-203 256h-36zM299 0v1440h254v-1440h-254zM406 94h40v1249h-40v-1249z" />
<glyph unicode="&#xef;" horiz-adv-x="851" d="M104 1706q0 54 38 91.5t91 37.5q54 0 91.5 -37.5t37.5 -91.5q0 -53 -37.5 -91t-91.5 -38q-53 0 -91 38.5t-38 90.5zM195 1706q0 -15 11.5 -27t26.5 -12t27 12t12 27t-12 27t-27 12t-26.5 -12t-11.5 -27zM299 0v1440h254v-1440h-254zM406 94h40v1249h-40v-1249zM496 1706 q0 54 38 91.5t91 37.5q54 0 91.5 -37.5t37.5 -91.5q0 -53 -37.5 -91t-91.5 -38q-53 0 -91 38.5t-38 90.5zM586 1706q0 -15 12 -27t27 -12t27 12t12 27t-12 27t-27 12t-27 -12t-12 -27z" />
<glyph unicode="&#xf0;" horiz-adv-x="1828" d="M199 612v179h110v649h543q220 0 396 -92t275 -256.5t99 -370.5q0 -152 -59 -286t-160.5 -229.5t-245 -150.5t-305.5 -55h-543v612h-110zM293 684h121v-592h413q191 0 346.5 79.5t245.5 223t90 322.5q0 274 -192 452.5t-490 178.5h-413v-623h-121v-41zM455 133v551h157v41 h-157v582h372q280 0 460.5 -167t180.5 -423q0 -167 -85 -301t-231.5 -208.5t-324.5 -74.5h-372zM565 233h289q211 0 353.5 137.5t142.5 346.5q0 213 -140 351t-356 138h-289v-415h142v-179h-142v-379z" />
<glyph unicode="&#xf1;" horiz-adv-x="1822" d="M299 0v1448h80l891 -928v920h254v-1450h-68l-903 903v-893h-254zM406 94h40v1053l981 -979v1175h-41v-1077l-980 979v-1151zM465 1690q4 7 11 19t33 43t57.5 54.5t84.5 42.5t113 19q51 0 99 -18t78.5 -39.5t65.5 -39.5t62 -18q39 0 74 26.5t50 52.5l15 26l152 -89 q-3 -8 -10 -21.5t-33 -48.5t-57 -61.5t-83.5 -48.5t-111.5 -22q-48 0 -92 17.5t-71.5 38.5t-64.5 38.5t-73 17.5q-27 0 -53.5 -10.5t-44.5 -25.5t-33 -30t-22 -25l-7 -11zM580 1710l32 -24q2 3 6 7.5t18.5 16.5t31 21t43 16.5t55.5 7.5q47 0 119 -47q100 -66 182 -66 q47 0 89 19t61 36.5t32 35.5l-32 24q-10 -15 -25.5 -29t-50 -29.5t-74.5 -15.5q-48 0 -84.5 15t-77.5 43q-29 19 -45.5 28t-42.5 18t-51 9q-33 0 -64.5 -9t-52.5 -21.5t-37.5 -25t-23.5 -21.5z" />
<glyph unicode="&#xf2;" horiz-adv-x="1947" d="M205 721q0 153 59.5 291t162 237t245 157t301.5 58q220 0 396 -95.5t275 -265.5t99 -382q0 -157 -59 -295t-160.5 -236.5t-245 -155.5t-305.5 -57q-163 0 -305.5 56.5t-244 155t-160 237t-58.5 295.5zM319 717q0 -183 89 -334t239.5 -236.5t327.5 -85.5q178 0 327.5 84 t238.5 235.5t89 336.5q0 187 -85.5 338t-235.5 235t-334 84q-137 0 -258 -49.5t-208.5 -135.5t-138.5 -209t-51 -263zM360 717q0 175 81.5 316.5t222.5 220.5t311 79q172 0 312.5 -79t221 -220.5t80.5 -316.5q0 -130 -48.5 -245t-131.5 -195.5t-196 -127.5t-238 -47 q-167 0 -308 80.5t-224 222t-83 312.5zM479 717q0 -142 65.5 -260.5t179.5 -187t251 -68.5q210 0 352.5 148.5t142.5 367.5q0 146 -63 264.5t-176.5 186t-255.5 67.5q-213 0 -354.5 -148t-141.5 -370zM715 1688l73 200l451 -225l-41 -115zM801 1743l340 -129l14 37l-338 129 z" />
<glyph unicode="&#xf3;" horiz-adv-x="1947" d="M205 721q0 153 59.5 291t162 237t245 157t301.5 58q220 0 396 -95.5t275 -265.5t99 -382q0 -157 -59 -295t-160.5 -236.5t-245 -155.5t-305.5 -57q-163 0 -305.5 56.5t-244 155t-160 237t-58.5 295.5zM319 717q0 -183 89 -334t239.5 -236.5t327.5 -85.5q178 0 327.5 84 t238.5 235.5t89 336.5q0 187 -85.5 338t-235.5 235t-334 84q-137 0 -258 -49.5t-208.5 -135.5t-138.5 -209t-51 -263zM360 717q0 175 81.5 316.5t222.5 220.5t311 79q172 0 312.5 -79t221 -220.5t80.5 -316.5q0 -130 -48.5 -245t-131.5 -195.5t-196 -127.5t-238 -47 q-167 0 -308 80.5t-224 222t-83 312.5zM479 717q0 -142 65.5 -260.5t179.5 -187t251 -68.5q210 0 352.5 148.5t142.5 367.5q0 146 -63 264.5t-176.5 186t-255.5 67.5q-213 0 -354.5 -148t-141.5 -370zM715 1663l450 225l74 -200l-483 -140zM799 1651l14 -37l340 129l-16 37z " />
<glyph unicode="&#xf4;" horiz-adv-x="1947" d="M205 721q0 153 59.5 291t162 237t245 157t301.5 58q220 0 396 -95.5t275 -265.5t99 -382q0 -157 -59 -295t-160.5 -236.5t-245 -155.5t-305.5 -57q-163 0 -305.5 56.5t-244 155t-160 237t-58.5 295.5zM319 717q0 -183 89 -334t239.5 -236.5t327.5 -85.5q178 0 327.5 84 t238.5 235.5t89 336.5q0 187 -85.5 338t-235.5 235t-334 84q-137 0 -258 -49.5t-208.5 -135.5t-138.5 -209t-51 -263zM360 717q0 175 81.5 316.5t222.5 220.5t311 79q172 0 312.5 -79t221 -220.5t80.5 -316.5q0 -130 -48.5 -245t-131.5 -195.5t-196 -127.5t-238 -47 q-167 0 -308 80.5t-224 222t-83 312.5zM479 717q0 -142 65.5 -260.5t179.5 -187t251 -68.5q210 0 352.5 148.5t142.5 367.5q0 146 -63 264.5t-176.5 186t-255.5 67.5q-213 0 -354.5 -148t-141.5 -370zM631 1636l303 363h92l295 -363h-219l-133 172l-131 -172h-207zM743 1683 h56q26 34 86.5 105.5t87.5 105.5l168 -211h53l-203 256h-37z" />
<glyph unicode="&#xf5;" horiz-adv-x="1947" d="M205 721q0 153 59.5 291t162 237t245 157t301.5 58q220 0 396 -95.5t275 -265.5t99 -382q0 -157 -59 -295t-160.5 -236.5t-245 -155.5t-305.5 -57q-163 0 -305.5 56.5t-244 155t-160 237t-58.5 295.5zM319 717q0 -183 89 -334t239.5 -236.5t327.5 -85.5q178 0 327.5 84 t238.5 235.5t89 336.5q0 187 -85.5 338t-235.5 235t-334 84q-137 0 -258 -49.5t-208.5 -135.5t-138.5 -209t-51 -263zM360 717q0 175 81.5 316.5t222.5 220.5t311 79q172 0 312.5 -79t221 -220.5t80.5 -316.5q0 -130 -48.5 -245t-131.5 -195.5t-196 -127.5t-238 -47 q-167 0 -308 80.5t-224 222t-83 312.5zM479 717q0 -142 65.5 -260.5t179.5 -187t251 -68.5q210 0 352.5 148.5t142.5 367.5q0 146 -63 264.5t-176.5 186t-255.5 67.5q-213 0 -354.5 -148t-141.5 -370zM528 1690q4 7 11 19t33 43t57.5 54.5t84.5 42.5t113 19q51 0 99 -18 t79 -39.5t66 -39.5t62 -18q39 0 74 26.5t50 52.5l15 26l151 -89q-3 -8 -10 -21.5t-33 -48.5t-57 -61.5t-83.5 -48.5t-111.5 -22q-48 0 -92 17.5t-71.5 38.5t-64.5 38.5t-73 17.5q-27 0 -53 -10.5t-44.5 -25.5t-33 -30t-21.5 -25l-7 -11zM643 1710l33 -24q2 3 6 7.5 t18.5 16.5t30.5 21t42.5 16.5t55.5 7.5q47 0 119 -47q100 -66 182 -66q68 0 114.5 30t68.5 61l-33 24q-10 -15 -25.5 -29t-50 -29.5t-74.5 -15.5q-34 0 -65.5 9.5t-50 20t-45.5 28.5q-28 18 -45.5 28t-43.5 18.5t-51 8.5q-33 0 -64.5 -9t-52.5 -21.5t-37.5 -25t-24.5 -21.5z " />
<glyph unicode="&#xf6;" horiz-adv-x="1947" d="M205 721q0 153 59.5 291t162 237t245 157t301.5 58q220 0 396 -95.5t275 -265.5t99 -382q0 -157 -59 -295t-160.5 -236.5t-245 -155.5t-305.5 -57q-163 0 -305.5 56.5t-244 155t-160 237t-58.5 295.5zM319 717q0 -183 89 -334t239.5 -236.5t327.5 -85.5q178 0 327.5 84 t238.5 235.5t89 336.5q0 187 -85.5 338t-235.5 235t-334 84q-137 0 -258 -49.5t-208.5 -135.5t-138.5 -209t-51 -263zM360 717q0 175 81.5 316.5t222.5 220.5t311 79q172 0 312.5 -79t221 -220.5t80.5 -316.5q0 -130 -48.5 -245t-131.5 -195.5t-196 -127.5t-238 -47 q-167 0 -308 80.5t-224 222t-83 312.5zM479 717q0 -142 65.5 -260.5t179.5 -187t251 -68.5q210 0 352.5 148.5t142.5 367.5q0 146 -63 264.5t-176.5 186t-255.5 67.5q-213 0 -354.5 -148t-141.5 -370zM653 1706q0 54 38 91.5t91 37.5q54 0 91.5 -37.5t37.5 -91.5 q0 -53 -37.5 -91t-91.5 -38q-52 0 -90.5 38.5t-38.5 90.5zM743 1706q0 -15 12 -27t27 -12t27 12t12 27t-12 27t-27 12t-27 -12t-12 -27zM1044 1706q0 54 38.5 91.5t91.5 37.5q54 0 91.5 -37.5t37.5 -91.5q0 -53 -37.5 -91t-91.5 -38q-53 0 -91.5 38.5t-38.5 90.5zM1135 1706 q0 -15 12 -27t27 -12t26.5 12t11.5 27t-11.5 27t-26.5 12t-27 -12t-12 -27z" />
<glyph unicode="&#xf7;" horiz-adv-x="1161" d="M233 504v172h695v-172h-695zM326 567h508v41h-508v-41zM463 301q0 49 34.5 84t84.5 35q49 0 82.5 -34.5t33.5 -84.5t-33.5 -84.5t-82.5 -34.5q-50 0 -84.5 35t-34.5 84zM463 879q0 49 34.5 83.5t84.5 34.5q49 0 82.5 -34t33.5 -84q0 -48 -33.5 -82.5t-82.5 -34.5 t-84 34.5t-35 82.5zM543 303q0 -15 12 -27t27 -12t27 12t12 27t-12 27t-27 12t-27 -12t-12 -27zM543 881q0 -15 12 -27t27 -12t27 12t12 27t-12 27t-27 12t-27 -12t-12 -27z" />
<glyph unicode="&#xf8;" horiz-adv-x="1947" d="M205 721q0 153 59.5 291t162 237t245 157t301.5 58q198 0 364 -80l70 91l139 -105l-61 -80q123 -101 190.5 -247.5t67.5 -321.5q0 -157 -59 -295t-160.5 -236.5t-245 -155.5t-305.5 -57q-221 0 -404 103l-90 -121l-139 104l90 119q-107 101 -166 239.5t-59 299.5z M319 717q0 -148 60 -276t166 -220l-92 -123l32 -24l90 121q177 -134 400 -134q178 0 327.5 84t238.5 235.5t89 336.5q0 167 -69.5 305.5t-192.5 228.5l70 95l-33 24l-72 -96q-162 100 -358 100q-137 0 -258 -49.5t-208.5 -135.5t-138.5 -209t-51 -263zM360 717 q0 175 81.5 316.5t222.5 220.5t311 79q184 0 334 -92l-740 -987q-99 85 -154 204.5t-55 258.5zM479 717q0 -185 109 -326l602 797q-96 47 -215 47q-213 0 -354.5 -148t-141.5 -370zM600 227l741 990q116 -83 182 -213t66 -287q0 -130 -48.5 -245t-131.5 -195.5t-196 -127.5 t-238 -47q-216 0 -375 125zM717 274q115 -73 258 -73q210 0 352.5 148.5t142.5 367.5q0 223 -139 368z" />
<glyph unicode="&#xf9;" d="M283 596v844h254v-844q0 -389 342 -389q350 0 350 391v842h254v-844q0 -158 -43.5 -278t-124 -195t-190 -112.5t-246.5 -37.5q-280 0 -438 155t-158 468zM387 580q0 -253 130.5 -383.5t361.5 -130.5q228 0 358.5 132.5t130.5 389.5v760h-41v-760q0 -237 -120 -359.5 t-328 -122.5q-211 0 -331 121t-120 353v761h-41v-761zM621 1688l73 200l451 -225l-41 -115zM707 1743l340 -129l14 37l-338 129z" />
<glyph unicode="&#xfa;" d="M283 596v844h254v-844q0 -389 342 -389q350 0 350 391v842h254v-844q0 -158 -43.5 -278t-124 -195t-190 -112.5t-246.5 -37.5q-280 0 -438 155t-158 468zM387 580q0 -253 130.5 -383.5t361.5 -130.5q228 0 358.5 132.5t130.5 389.5v760h-41v-760q0 -237 -120 -359.5 t-328 -122.5q-211 0 -331 121t-120 353v761h-41v-761zM621 1663l450 225l74 -200l-483 -140zM705 1651l14 -37l340 129l-17 37z" />
<glyph unicode="&#xfb;" d="M283 596v844h254v-844q0 -389 342 -389q350 0 350 391v842h254v-844q0 -158 -43.5 -278t-124 -195t-190 -112.5t-246.5 -37.5q-280 0 -438 155t-158 468zM387 580q0 -253 130.5 -383.5t361.5 -130.5q228 0 358.5 132.5t130.5 389.5v760h-41v-760q0 -237 -120 -359.5 t-328 -122.5q-211 0 -331 121t-120 353v761h-41v-761zM537 1636l303 363h92l295 -363h-219l-134 172l-131 -172h-206zM649 1683h56q27 34 87.5 105.5t86.5 105.5l168 -211h53l-203 256h-37z" />
<glyph unicode="&#xfc;" d="M283 596v844h254v-844q0 -389 342 -389q350 0 350 391v842h254v-844q0 -158 -43.5 -278t-124 -195t-190 -112.5t-246.5 -37.5q-280 0 -438 155t-158 468zM387 580q0 -253 130.5 -383.5t361.5 -130.5q228 0 358.5 132.5t130.5 389.5v760h-41v-760q0 -237 -120 -359.5 t-328 -122.5q-211 0 -331 121t-120 353v761h-41v-761zM559 1706q0 54 38 91.5t91 37.5q54 0 91.5 -37.5t37.5 -91.5q0 -53 -37.5 -91t-91.5 -38q-52 0 -90.5 38.5t-38.5 90.5zM649 1706q0 -15 12 -27t27 -12t27 12t12 27t-12 27t-27 12t-27 -12t-12 -27zM950 1706 q0 54 38 91.5t91 37.5q54 0 91.5 -37.5t37.5 -91.5q0 -53 -37.5 -91t-91.5 -38q-53 0 -91 38.5t-38 90.5zM1040 1706q0 -15 12 -27t27 -12t27 12t12 27t-12 27t-27 12t-27 -12t-12 -27z" />
<glyph unicode="&#xfd;" horiz-adv-x="1593" d="M199 1116v324h256v-324q0 -209 92.5 -309t251.5 -100q344 0 344 411v322h256v-324q0 -287 -123.5 -444.5t-353.5 -190.5v-481h-252v481q-229 31 -350 189t-121 446zM311 1075q0 -247 123.5 -377.5t345.5 -136.5v-467h41v467q220 5 345.5 137t125.5 385v260h-41v-260 q0 -237 -120 -359t-328 -122q-212 0 -331.5 120.5t-119.5 352.5v262h-41v-262zM532 1663l451 225l74 -200l-484 -140zM616 1651l15 -37l340 129l-17 37z" />
<glyph unicode="&#xfe;" horiz-adv-x="1488" d="M299 0v1440h254v-199h186q279 0 427.5 -139.5t148.5 -372.5q0 -236 -155.5 -373t-469.5 -137h-137v-219h-254zM399 94h41v215h262q253 0 377.5 112t124.5 308q0 186 -117.5 300t-334.5 114h-312v203h-41v-1252zM440 350v752h312q196 0 303.5 -103.5t107.5 -269.5 q0 -177 -114.5 -278t-346.5 -101h-262zM553 444h168q168 0 243.5 78t75.5 207q0 279 -319 279h-168v-564z" />
<glyph unicode="&#xff;" horiz-adv-x="1593" d="M199 1116v324h256v-324q0 -209 92.5 -309t251.5 -100q344 0 344 411v322h256v-324q0 -287 -123.5 -444.5t-353.5 -190.5v-481h-252v481q-229 31 -350 189t-121 446zM311 1075q0 -247 123.5 -377.5t345.5 -136.5v-467h41v467q220 5 345.5 137t125.5 385v260h-41v-260 q0 -237 -120 -359t-328 -122q-212 0 -331.5 120.5t-119.5 352.5v262h-41v-262zM465 1706q0 54 38 91.5t91 37.5q54 0 91.5 -37.5t37.5 -91.5q0 -53 -37.5 -91t-91.5 -38q-52 0 -90.5 38.5t-38.5 90.5zM555 1706q0 -15 12 -27t27 -12t27 12t12 27t-12 27t-27 12t-27 -12 t-12 -27zM856 1706q0 54 38 91.5t91 37.5q54 0 91.5 -37.5t37.5 -91.5q0 -53 -37.5 -91t-91.5 -38q-53 0 -91 38.5t-38 90.5zM946 1706q0 -15 12 -27t27 -12t27 12t12 27t-12 27t-27 12t-27 -12t-12 -27z" />
<glyph unicode="&#x152;" horiz-adv-x="2150" d="M207 721q0 153 59.5 287t161.5 228.5t243.5 149t301.5 54.5h936v-234h-682v-403h618v-225h-618v-345h682v-233h-936q-218 0 -392.5 90.5t-274 255.5t-99.5 375zM322 717q0 -304 197 -464.5t556 -160.5h752v41h-711v529h645v40h-645v601h711v40h-748q-368 0 -562.5 -158 t-194.5 -468zM362 717q0 290 182.5 437t530.5 149v-1170q-343 0 -528 149t-185 435zM481 717q0 -214 141.5 -353t350.5 -141v987q-214 -2 -353 -138.5t-139 -354.5z" />
<glyph unicode="&#x153;" horiz-adv-x="2150" d="M207 721q0 153 59.5 287t161.5 228.5t243.5 149t301.5 54.5h936v-234h-682v-403h618v-225h-618v-345h682v-233h-936q-218 0 -392.5 90.5t-274 255.5t-99.5 375zM322 717q0 -304 197 -464.5t556 -160.5h752v41h-711v529h645v40h-645v601h711v40h-748q-368 0 -562.5 -158 t-194.5 -468zM362 717q0 290 182.5 437t530.5 149v-1170q-343 0 -528 149t-185 435zM481 717q0 -214 141.5 -353t350.5 -141v987q-214 -2 -353 -138.5t-139 -354.5z" />
<glyph unicode="&#x178;" horiz-adv-x="1536" d="M111 1440h292l367 -637l367 637h286l-528 -871v-569h-256v571zM293 1343l455 -772v-477h40v477l461 772h-47l-434 -725l-430 725h-45zM444 1706q0 54 38 91.5t91 37.5q54 0 91.5 -37.5t37.5 -91.5q0 -53 -37.5 -91t-91.5 -38q-53 0 -91 38.5t-38 90.5zM535 1706 q0 -15 11.5 -27t26.5 -12t27 12t12 27t-12 27t-27 12t-26.5 -12t-11.5 -27zM836 1706q0 54 38 91.5t91 37.5q54 0 91.5 -37.5t37.5 -91.5q0 -53 -37.5 -91t-91.5 -38q-53 0 -91 38.5t-38 90.5zM926 1706q0 -15 12 -27t27 -12t27 12t12 27t-12 27t-27 12t-27 -12t-12 -27z " />
<glyph unicode="&#x2c6;" horiz-adv-x="1308" d="M315 1010l303 362h93l295 -362h-220l-133 172l-131 -172h-207zM428 1057h55q27 34 87.5 105.5t86.5 105.5l168 -211h54l-203 256h-37z" />
<glyph unicode="&#x2dc;" horiz-adv-x="1308" d="M199 1063q4 7 11 19t33 43t57.5 54.5t84.5 42.5t113 19q51 0 99 -18t78.5 -39.5t65.5 -39.5t62 -18q25 0 48 11t39 26t28 30.5t18 26.5l6 11l152 -88q-3 -8 -10 -22t-33 -49t-57 -61.5t-83.5 -48.5t-111.5 -22q-48 0 -92 17.5t-71.5 39t-64.5 39t-73 17.5 q-27 0 -53.5 -10.5t-44.5 -25.5t-33 -30.5t-22 -26.5l-7 -10zM313 1083l33 -24q2 3 6 7.5t18.5 16.5t31 21t43 16.5t55.5 7.5q46 0 118 -47q99 -65 183 -65q47 0 89 18.5t61 36t32 35.5l-33 24q-10 -14 -25 -28.5t-49.5 -29.5t-74.5 -15q-77 0 -162 57q-29 19 -45.5 28 t-42.5 18t-51 9q-53 0 -99.5 -21.5t-66.5 -43.5z" />
<glyph unicode="&#x2000;" horiz-adv-x="1015" />
<glyph unicode="&#x2001;" horiz-adv-x="2030" />
<glyph unicode="&#x2002;" horiz-adv-x="1015" />
<glyph unicode="&#x2003;" horiz-adv-x="2030" />
<glyph unicode="&#x2004;" horiz-adv-x="676" />
<glyph unicode="&#x2005;" horiz-adv-x="507" />
<glyph unicode="&#x2006;" horiz-adv-x="338" />
<glyph unicode="&#x2007;" horiz-adv-x="338" />
<glyph unicode="&#x2008;" horiz-adv-x="253" />
<glyph unicode="&#x2009;" horiz-adv-x="406" />
<glyph unicode="&#x200a;" horiz-adv-x="112" />
<glyph unicode="&#x2010;" horiz-adv-x="1040" d="M266 412v178h508v-178h-508zM358 477h324v41h-324v-41z" />
<glyph unicode="&#x2011;" horiz-adv-x="1040" d="M266 412v178h508v-178h-508zM358 477h324v41h-324v-41z" />
<glyph unicode="&#x2012;" horiz-adv-x="1040" d="M266 412v178h508v-178h-508zM358 477h324v41h-324v-41z" />
<glyph unicode="&#x2013;" horiz-adv-x="1339" d="M260 422v158h819v-158h-819zM354 479h631v41h-631v-41z" />
<glyph unicode="&#x2014;" horiz-adv-x="1847" d="M258 422v158h1331v-158h-1331zM352 479h1143v41h-1143v-41z" />
<glyph unicode="&#x2018;" horiz-adv-x="806" d="M250 1268q0 201 229 366l60 -69q-51 -39 -94.5 -100t-43.5 -91v-4q4 2 15 2q66 0 109.5 -44t43.5 -109q0 -64 -44 -109t-109 -45q-84 0 -125 55.5t-41 147.5zM377 1217q0 -15 12 -27t27 -12t27 12t12 27t-12 26.5t-27 11.5t-27 -11.5t-12 -26.5z" />
<glyph unicode="&#x2019;" horiz-adv-x="778" d="M240 1372q0 64 44 109t109 45q84 0 125 -55.5t41 -147.5q0 -202 -229 -367l-60 70q51 39 94.5 100t43.5 91v4q-4 -2 -15 -2q-66 0 -109.5 44t-43.5 109zM354 1374q0 -15 12 -27t27 -12t27 12t12 27t-12 27t-27 12t-27 -12t-12 -27z" />
<glyph unicode="&#x201a;" horiz-adv-x="817" d="M250 94q0 64 44 109t109 45q84 0 125 -55.5t41 -147.5q0 -202 -229 -367l-59 70q51 39 94 100t43 91v4q-4 -2 -15 -2q-66 0 -109.5 44t-43.5 109zM365 96q0 -15 11.5 -27t26.5 -12t27 12t12 27t-12 27t-27 12t-26.5 -12t-11.5 -27z" />
<glyph unicode="&#x201c;" horiz-adv-x="1191" d="M248 1266q0 201 229 366l60 -69q-51 -39 -94.5 -100t-43.5 -91v-4q4 2 15 2q66 0 109.5 -44t43.5 -109q0 -64 -44 -109t-109 -45q-84 0 -125 55.5t-41 147.5zM377 1217q0 -15 12 -27t27 -12t27 12t12 27t-12 26.5t-27 11.5t-27 -11.5t-12 -26.5zM633 1266q0 201 229 366 l60 -69q-51 -39 -94.5 -100t-43.5 -91v-4q4 2 15 2q66 0 109.5 -44t43.5 -109q0 -64 -44 -109t-109 -45q-84 0 -125 55.5t-41 147.5zM764 1214q0 -15 12 -26.5t27 -11.5t27 11.5t12 26.5t-12 27t-27 12t-27 -12t-12 -27z" />
<glyph unicode="&#x201d;" horiz-adv-x="1163" d="M240 1372q0 64 44 109t109 45q84 0 125 -55.5t41 -147.5q0 -202 -229 -367l-60 70q51 39 94.5 100t43.5 91v4q-4 -2 -15 -2q-66 0 -109.5 44t-43.5 109zM350 1374q0 -15 12 -27t27 -12t27 12t12 27t-12 27t-27 12t-27 -12t-12 -27zM625 1372q0 64 44 109t109 45 q84 0 125 -55.5t41 -147.5q0 -202 -229 -367l-60 70q51 39 94.5 100t43.5 91v4q-4 -2 -15 -2q-66 0 -109.5 44t-43.5 109zM737 1372q0 -15 12 -27t27 -12t27 12t12 27t-12 27t-27 12t-27 -12t-12 -27z" />
<glyph unicode="&#x201e;" horiz-adv-x="1202" d="M250 94q0 64 44 109t109 45q84 0 125 -55.5t41 -147.5q0 -202 -229 -367l-59 70q51 39 94 100t43 91v4q-4 -2 -15 -2q-66 0 -109.5 44t-43.5 109zM360 96q0 -15 12 -27t27 -12t27 12t12 27t-12 27t-27 12t-27 -12t-12 -27zM635 94q0 64 44 109t109 45q84 0 125 -55.5 t41 -147.5q0 -202 -229 -367l-59 70q51 39 94 100t43 91v4q-4 -2 -15 -2q-66 0 -109.5 44t-43.5 109zM748 94q0 -15 11.5 -27t26.5 -12t27 12t12 27t-12 27t-27 12t-26.5 -12t-11.5 -27z" />
<glyph unicode="&#x2022;" horiz-adv-x="1093" d="M281 750q0 114 77.5 192t188.5 78q109 0 186.5 -78.5t77.5 -191.5q0 -112 -77.5 -190.5t-186.5 -78.5q-110 0 -188 78.5t-78 190.5zM352 752q0 -86 54.5 -144.5t138.5 -58.5t140 59t56 144t-56 143.5t-140 58.5t-138.5 -58t-54.5 -144zM393 752q0 67 43.5 114t108.5 47 t110 -47t45 -114t-45 -114.5t-110 -47.5t-108.5 47.5t-43.5 114.5z" />
<glyph unicode="&#x2026;" horiz-adv-x="1892" d="M248 123q0 64 44 108.5t109 44.5q64 0 109 -45t45 -108q0 -65 -44.5 -109.5t-109.5 -44.5q-66 0 -109.5 44.5t-43.5 109.5zM358 123q0 -15 12 -27t27 -12t27 12t12 27t-12 27t-27 12t-27 -12t-12 -27zM793 123q0 64 44 108.5t109 44.5q64 0 109 -45t45 -108 q0 -65 -45 -109.5t-109 -44.5q-66 0 -109.5 44.5t-43.5 109.5zM903 123q0 -15 12 -27t27 -12t27 12t12 27t-12 27t-27 12t-27 -12t-12 -27zM1337 123q0 64 44.5 108.5t109.5 44.5q64 0 109 -45t45 -108q0 -65 -44.5 -109.5t-109.5 -44.5q-66 0 -110 44.5t-44 109.5z M1448 123q0 -15 12 -27t27 -12t27 12t12 27t-12 27t-27 12t-27 -12t-12 -27z" />
<glyph unicode="&#x202f;" horiz-adv-x="406" />
<glyph unicode="&#x2039;" horiz-adv-x="878" d="M195 354l215 334h217l-224 -334l224 -336h-217zM272 354l174 -260h46q-34 52 -86.5 130t-86.5 130l164 254h-47z" />
<glyph unicode="&#x203a;" horiz-adv-x="878" d="M252 18l223 336l-223 334h217l215 -334l-215 -336h-217zM387 94h45l174 260l-164 254h-47l164 -254z" />
<glyph unicode="&#x205f;" horiz-adv-x="507" />
<glyph unicode="&#x20ac;" horiz-adv-x="1802" d="M199 483v179h94q-2 16 -2 59q0 47 2 70h-94v178h131q79 220 284 357.5t463 137.5q90 0 176.5 -13t145.5 -32t105.5 -37.5t68.5 -31.5l22 -13l-88 -217q-8 4 -22.5 11t-58.5 25.5t-88 32t-104.5 25t-113.5 11.5q-178 0 -308 -68t-194 -188h506v-178h-555q-4 -25 -4 -74 q0 -37 2 -55h557v-179h-510q62 -124 190 -196t292 -72q111 0 218 27.5t158 54.5l52 27l78 -218q-8 -5 -22.5 -14t-63.5 -31.5t-102.5 -40t-135.5 -31.5t-166 -14q-295 0 -505 139t-283 369h-125zM293 551h133q54 -217 235 -348t431 -131q70 0 135.5 7.5t109 18t77.5 21.5 t50 19l15 7l-13 41q-6 -3 -16.5 -8t-46.5 -17.5t-76.5 -22t-104 -17.5t-130.5 -8q-231 0 -400 120t-223 318h555v41h-563q-12 59 -12 125q0 78 14 141h561v41h-553q55 197 219 312.5t406 115.5q81 0 168 -18t134 -36l46 -18l16 37q-20 9 -54 21.5t-130 33.5t-180 21 q-260 0 -436.5 -126.5t-231.5 -342.5h-135v-41h127q-12 -68 -12 -141q0 -60 10 -125h-125v-41z" />
<glyph unicode="&#x2122;" horiz-adv-x="1626" d="M246 1317v123h456v-123h-161v-422h-133v422h-162zM301 1360h156v-410h32v410h158v33h-346v-33zM786 895l27 549h47l215 -359l211 359h47l25 -549h-121l-6 266l-139 -276h-37l-142 276l-4 -266h-123zM836 956h32l13 320l182 -311h20l183 309l12 -324h33l-19 412h-12 l-207 -354l-207 354h-12z" />
<glyph unicode="&#x25fc;" horiz-adv-x="1443" d="M0 0v1444h1444v-1444h-1444z" />
</font>
</defs>
</svg>
